<svg width="65" height="65" viewBox="0 0 65 65" fill="none" xmlns="http://www.w3.org/2000/svg">
<path d="M10.8333 29.7917C11.5236 29.7924 12.1876 30.0567 12.6895 30.5306C13.1915 31.0045 13.4936 31.6522 13.534 32.3413C13.5745 33.0304 13.3503 33.7089 12.9072 34.2383C12.4641 34.7676 11.8357 35.1078 11.1502 35.1894L10.8333 35.2083H8.125C7.4347 35.2076 6.77075 34.9432 6.26879 34.4694C5.76684 33.9955 5.46478 33.3478 5.42432 32.6587C5.38387 31.9696 5.60808 31.291 6.05113 30.7617C6.49419 30.2323 7.12266 29.8921 7.80812 29.8106L8.125 29.7917H10.8333ZM32.5 5.41666C33.1634 5.41674 33.8036 5.66029 34.2993 6.10109C34.7951 6.5419 35.1118 7.14931 35.1894 7.80811L35.2083 8.12499V10.8333C35.2076 11.5236 34.9432 12.1876 34.4694 12.6895C33.9955 13.1915 33.3478 13.4935 32.6587 13.534C31.9696 13.5745 31.2911 13.3502 30.7617 12.9072C30.2323 12.4641 29.8922 11.8357 29.8106 11.1502L29.7917 10.8333V8.12499C29.7917 7.4067 30.077 6.71782 30.5849 6.20991C31.0928 5.702 31.7817 5.41666 32.5 5.41666ZM56.875 29.7917C57.5653 29.7924 58.2292 30.0567 58.7312 30.5306C59.2332 31.0045 59.5352 31.6522 59.5757 32.3413C59.6161 33.0304 59.3919 33.7089 58.9489 34.2383C58.5058 34.7676 57.8773 35.1078 57.1919 35.1894L56.875 35.2083H54.1667C53.4764 35.2076 52.8124 34.9432 52.3105 34.4694C51.8085 33.9955 51.5064 33.3478 51.466 32.6587C51.4255 31.9696 51.6497 31.291 52.0928 30.7617C52.5359 30.2323 53.1643 29.8921 53.8498 29.8106L54.1667 29.7917H56.875ZM13.2519 13.2519C13.7182 12.7856 14.3387 12.5054 14.9969 12.464C15.6551 12.4227 16.3058 12.6229 16.8269 13.0271L17.0815 13.2519L18.9773 15.1477C19.463 15.6351 19.745 16.2891 19.766 16.9769C19.787 17.6646 19.5455 18.3346 19.0904 18.8507C18.6353 19.3669 18.0008 19.6904 17.3158 19.7557C16.6308 19.8209 15.9466 19.623 15.4023 19.2021L15.1477 18.9773L13.2519 17.0814C12.7441 16.5736 12.4589 15.8848 12.4589 15.1667C12.4589 14.4485 12.7441 13.7598 13.2519 13.2519ZM47.9185 13.2519C48.4059 12.7661 49.0599 12.4841 49.7477 12.4631C50.4355 12.4421 51.1055 12.6837 51.6216 13.1388C52.1377 13.5939 52.4612 14.2284 52.5265 14.9134C52.5918 15.5984 52.3938 16.2825 51.9729 16.8269L51.7481 17.0814L49.8523 18.9773C49.3649 19.463 48.7109 19.745 48.0231 19.766C47.3353 19.787 46.6654 19.5455 46.1492 19.0904C45.6331 18.6353 45.3096 18.0008 45.2443 17.3158C45.1791 16.6308 45.377 15.9466 45.7979 15.4023L46.0227 15.1477L47.9185 13.2519ZM37.9167 48.75C38.635 48.75 39.3238 49.0353 39.8317 49.5432C40.3397 50.0512 40.625 50.74 40.625 51.4583C40.625 53.6132 39.769 55.6798 38.2452 57.2036C36.7215 58.7273 34.6549 59.5833 32.5 59.5833C30.3451 59.5833 28.2785 58.7273 26.7548 57.2036C25.231 55.6798 24.375 53.6132 24.375 51.4583C24.3751 50.795 24.6186 50.1547 25.0594 49.659C25.5002 49.1633 26.1077 48.8466 26.7665 48.769L27.0833 48.75H37.9167ZM32.5 16.25C35.9106 16.25 39.2347 17.3231 42.0015 19.3173C44.7684 21.3115 46.8376 24.1257 47.9161 27.3613C48.9946 30.5969 49.0278 34.0898 48.0108 37.3452C46.9939 40.6007 44.9785 43.4536 42.25 45.5C41.8767 45.7804 41.4373 45.9595 40.9744 46.02L40.625 46.0417H24.375C23.789 46.0417 23.2188 45.8516 22.75 45.5C20.0215 43.4536 18.0061 40.6007 16.9892 37.3452C15.9722 34.0898 16.0054 30.5969 17.0839 27.3613C18.1624 24.1257 20.2316 21.3115 22.9985 19.3173C25.7653 17.3231 29.0894 16.25 32.5 16.25Z" fill="#E8F1D4"/>
</svg>
