<svg width="193" height="202" viewBox="0 0 193 202" fill="none" xmlns="http://www.w3.org/2000/svg">
<g filter="url(#filter0_d_221_28)">
<path d="M57.125 15.9375C57.125 13.0367 58.6651 10.2547 61.4064 8.20352C64.1477 6.15234 67.8657 5 71.7425 5H120.467C124.344 5 128.062 6.15234 130.804 8.20352C133.545 10.2547 135.085 13.0367 135.085 15.9375V23.2292C135.085 26.13 133.545 28.912 130.804 30.9631C128.062 33.0143 124.344 34.1667 120.467 34.1667H71.7425C67.8657 34.1667 64.1477 33.0143 61.4064 30.9631C58.6651 28.912 57.125 26.13 57.125 23.2292V15.9375Z" fill="#5C6D49"/>
<path fill-rule="evenodd" clip-rule="evenodd" d="M43.0278 13.626C30.7972 14.3066 23.0778 16.251 17.5458 21.7927C9 30.3385 9 44.0858 9 71.5802V129.914C9 157.418 9 171.165 17.5458 179.711C26.0819 188.247 39.8389 188.247 67.3333 188.247H125.667C153.161 188.247 166.918 188.247 175.454 179.711C184 171.155 184 157.418 184 129.914V71.5802C184 44.0858 184 30.3385 175.454 21.7927C169.922 16.251 162.203 14.3066 149.972 13.626V18.1274C149.972 25.8629 146.899 33.2816 141.43 38.7514C135.96 44.2212 128.541 47.2941 120.806 47.2941H72.1944C64.459 47.2941 57.0403 44.2212 51.5705 38.7514C46.1007 33.2816 43.0278 25.8629 43.0278 18.1274V13.626ZM40.5972 76.4608C40.5972 74.5269 41.3654 72.6722 42.7329 71.3048C44.1004 69.9373 45.955 69.1691 47.8889 69.1691H145.111C147.045 69.1691 148.9 69.9373 150.267 71.3048C151.635 72.6722 152.403 74.5269 152.403 76.4608C152.403 78.3946 151.635 80.2493 150.267 81.6167C148.9 82.9842 147.045 83.7524 145.111 83.7524H47.8889C45.955 83.7524 44.1004 82.9842 42.7329 81.6167C41.3654 80.2493 40.5972 78.3946 40.5972 76.4608ZM50.3194 110.489C50.3194 108.555 51.0877 106.7 52.4551 105.333C53.8226 103.965 55.6772 103.197 57.6111 103.197H135.389C137.323 103.197 139.177 103.965 140.545 105.333C141.912 106.7 142.681 108.555 142.681 110.489C142.681 112.422 141.912 114.277 140.545 115.645C139.177 117.012 137.323 117.78 135.389 117.78H57.6111C55.6772 117.78 53.8226 117.012 52.4551 115.645C51.0877 114.277 50.3194 112.422 50.3194 110.489ZM60.0417 144.516C60.0417 142.582 60.8099 140.728 62.1774 139.36C63.5448 137.993 65.3995 137.225 67.3333 137.225H125.667C127.601 137.225 129.455 137.993 130.823 139.36C132.19 140.728 132.958 142.582 132.958 144.516C132.958 146.45 132.19 148.305 130.823 149.672C129.455 151.04 127.601 151.808 125.667 151.808H67.3333C65.3995 151.808 63.5448 151.04 62.1774 149.672C60.8099 148.305 60.0417 146.45 60.0417 144.516Z" fill="#5C6D49"/>
</g>
<defs>
<filter id="filter0_d_221_28" x="0" y="0" width="193" height="201.247" filterUnits="userSpaceOnUse" color-interpolation-filters="sRGB">
<feFlood flood-opacity="0" result="BackgroundImageFix"/>
<feColorMatrix in="SourceAlpha" type="matrix" values="0 0 0 0 0 0 0 0 0 0 0 0 0 0 0 0 0 0 127 0" result="hardAlpha"/>
<feOffset dy="4"/>
<feGaussianBlur stdDeviation="4.5"/>
<feComposite in2="hardAlpha" operator="out"/>
<feColorMatrix type="matrix" values="0 0 0 0 0 0 0 0 0 0 0 0 0 0 0 0 0 0 0.25 0"/>
<feBlend mode="normal" in2="BackgroundImageFix" result="effect1_dropShadow_221_28"/>
<feBlend mode="normal" in="SourceGraphic" in2="effect1_dropShadow_221_28" result="shape"/>
</filter>
</defs>
</svg>
