<svg width="143" height="193" viewBox="0 0 143 193" fill="none" xmlns="http://www.w3.org/2000/svg">
<g clip-path="url(#clip0_291_48)" filter="url(#filter0_d_291_48)">
<path d="M96.2011 79.8106H105.544V48.6671H96.2011V79.8106Z" fill="#5C6D49"/>
<mask id="mask0_291_48" style="mask-type:luminance" maskUnits="userSpaceOnUse" x="9" y="5" width="125" height="175">
<path d="M9 5H133.432V179.432H9V5Z" fill="white"/>
</mask>
<g mask="url(#mask0_291_48)">
<path d="M127.345 79.8106C127.345 83.2434 124.548 86.0399 121.115 86.0399H111.773C110.631 86.0399 109.571 85.7114 108.66 85.1758C107.745 85.7114 106.689 86.0399 105.544 86.0399H96.2011C95.0588 86.0399 93.9994 85.7114 93.088 85.1758C92.1735 85.7114 91.1171 86.0399 89.9718 86.0399H80.6294C79.4871 86.0399 78.4277 85.7114 77.5162 85.1758C76.6018 85.7114 75.5453 86.0399 74.4001 86.0399H65.0577C61.6278 86.0399 58.8284 83.2434 58.8284 79.8106V54.8964C58.8284 51.4666 61.6278 48.6671 65.0577 48.6671H74.4001V39.3247C74.4001 35.8949 77.1996 33.0954 80.6294 33.0954H89.9718C93.4046 33.0954 96.2011 35.8949 96.2011 39.3247V42.4408H105.544V20.6398C105.544 17.21 108.343 14.4105 111.773 14.4105H121.115C124.548 14.4105 127.345 17.21 127.345 20.6398V79.8106ZM124.231 110.954H93.088C91.3716 110.954 89.9718 109.557 89.9718 107.841C89.9718 106.125 91.3716 104.728 93.088 104.728H124.231C125.945 104.728 127.345 106.125 127.345 107.841C127.345 109.557 125.945 110.954 124.231 110.954ZM124.231 129.642H93.088C91.3716 129.642 89.9718 128.242 89.9718 126.526C89.9718 124.812 91.3716 123.413 93.088 123.413H124.231C125.945 123.413 127.345 124.812 127.345 126.526C127.345 128.242 125.945 129.642 124.231 129.642ZM124.231 148.327H93.088C91.3716 148.327 89.9718 146.927 89.9718 145.214C89.9718 143.497 91.3716 142.098 93.088 142.098H124.231C125.945 142.098 127.345 143.497 127.345 145.214C127.345 146.927 125.945 148.327 124.231 148.327ZM49.4859 170.128C30.5939 170.128 15.2293 154.763 15.2293 135.871C15.2293 116.976 30.5939 101.612 49.4859 101.612C68.378 101.612 83.7455 116.976 83.7455 135.871C83.7455 154.763 68.378 170.128 49.4859 170.128ZM18.3424 79.8106H49.4859C51.2023 79.8106 52.602 81.2103 52.602 82.9267C52.602 84.6401 51.2023 86.0399 49.4859 86.0399H18.3424C16.629 86.0399 15.2293 84.6401 15.2293 82.9267C15.2293 81.2103 16.629 79.8106 18.3424 79.8106ZM18.3424 61.1257H49.4859C51.2023 61.1257 52.602 62.5254 52.602 64.2389C52.602 65.9552 51.2023 67.355 49.4859 67.355H18.3424C16.629 67.355 15.2293 65.9552 15.2293 64.2389C15.2293 62.5254 16.629 61.1257 18.3424 61.1257ZM18.3424 42.4408H49.4859C51.2023 42.4408 52.602 43.8376 52.602 45.554C52.602 47.2704 51.2023 48.6671 49.4859 48.6671H18.3424C16.629 48.6671 15.2293 47.2704 15.2293 45.554C15.2293 43.8376 16.629 42.4408 18.3424 42.4408ZM18.3424 23.7529H49.4859C51.2023 23.7529 52.602 25.1527 52.602 26.8691C52.602 28.5825 51.2023 29.9822 49.4859 29.9822H18.3424C16.629 29.9822 15.2293 28.5825 15.2293 26.8691C15.2293 25.1527 16.629 23.7529 18.3424 23.7529ZM130.461 5.06805H12.1132C10.3997 5.06805 9 6.46779 9 8.18122V176.357C9 178.071 10.3997 179.47 12.1132 179.47H108.66V167.015H93.088C91.3716 167.015 89.9718 165.615 89.9718 163.899C89.9718 162.185 91.3716 160.785 93.088 160.785H109.231C110.521 157.172 113.951 154.556 118.002 154.556H133.574V8.18122C133.574 6.46779 132.174 5.06805 130.461 5.06805Z" fill="#5C6D49"/>
</g>
<path d="M111.773 20.6398V79.8106H121.115V20.6398H111.773Z" fill="#5C6D49"/>
<path d="M29.6942 155.698C34.7664 160.762 41.774 163.899 49.4859 163.899C53.8301 163.899 57.9287 162.878 61.6041 161.114L48.6958 140.482L29.6942 155.698Z" fill="#5C6D49"/>
<path d="M66.8835 157.805C72.5772 153.278 76.4805 146.599 77.3327 138.984H55.1056L66.8835 157.805Z" fill="#5C6D49"/>
<path d="M46.3727 108.024C32.3813 109.581 21.4586 121.465 21.4586 135.871C21.4586 141.37 23.0743 146.477 25.8117 150.81L46.3727 134.374V108.024Z" fill="#5C6D49"/>
<path d="M65.0577 79.8106H74.4001V54.8964H65.0577V79.8106Z" fill="#5C6D49"/>
<path d="M80.6294 39.3247V79.8106H89.9718V48.6672V48.6553V39.3247H80.6294Z" fill="#5C6D49"/>
<path d="M114.889 163.899V175.067L129.17 160.785H118.002C116.286 160.785 114.889 162.185 114.889 163.899Z" fill="#5C6D49"/>
<path d="M52.6021 108.024V132.755H77.3328C75.8857 119.788 65.5696 109.472 52.6021 108.024Z" fill="#5C6D49"/>
<path d="M83.6064 97.877H84.3078V95.5451H83.6064V97.877Z" fill="#5C6D49"/>
<mask id="mask1_291_48" style="mask-type:luminance" maskUnits="userSpaceOnUse" x="77" y="92" width="10" height="14">
<path d="M77.0753 92.2722H86.1662V105.34H77.0753V92.2722Z" fill="white"/>
</mask>
<g mask="url(#mask1_291_48)">
<path d="M85.9413 97.877C85.9413 98.1345 85.7312 98.3446 85.4738 98.3446H84.7754C84.6895 98.3446 84.6096 98.3209 84.5416 98.2795C84.4735 98.3209 84.3936 98.3446 84.3078 98.3446H83.6064C83.5236 98.3446 83.4437 98.3209 83.3756 98.2795C83.3076 98.3209 83.2277 98.3446 83.1418 98.3446H82.4405C82.3547 98.3446 82.2777 98.3209 82.2097 98.2795C82.1386 98.3209 82.0617 98.3446 81.9759 98.3446H81.2745C81.0171 98.3446 80.8099 98.1345 80.8099 97.877V96.0127C80.8099 95.7552 81.0171 95.5451 81.2745 95.5451H81.9759V94.8467C81.9759 94.5892 82.186 94.3791 82.4405 94.3791H83.1418C83.3993 94.3791 83.6064 94.5892 83.6064 94.8467V95.0805H84.3078V93.447C84.3078 93.1895 84.5179 92.9794 84.7754 92.9794H85.4738C85.7312 92.9794 85.9413 93.1895 85.9413 93.447V97.877ZM85.7075 100.212H83.3756C83.2454 100.212 83.1418 100.105 83.1418 99.9781C83.1418 99.8479 83.2454 99.7443 83.3756 99.7443H85.7075C85.8348 99.7443 85.9413 99.8479 85.9413 99.9781C85.9413 100.105 85.8348 100.212 85.7075 100.212ZM85.7075 101.612H83.3756C83.2454 101.612 83.1418 101.505 83.1418 101.378C83.1418 101.248 83.2454 101.144 83.3756 101.144H85.7075C85.8348 101.144 85.9413 101.248 85.9413 101.378C85.9413 101.505 85.8348 101.612 85.7075 101.612ZM85.7075 103.011H83.3756C83.2454 103.011 83.1418 102.905 83.1418 102.778C83.1418 102.647 83.2454 102.544 83.3756 102.544H85.7075C85.8348 102.544 85.9413 102.647 85.9413 102.778C85.9413 102.905 85.8348 103.011 85.7075 103.011ZM80.1086 104.642C78.694 104.642 77.5429 103.491 77.5429 102.076C77.5429 100.662 78.694 99.5105 80.1086 99.5105C81.5231 99.5105 82.6743 100.662 82.6743 102.076C82.6743 103.491 81.5231 104.642 80.1086 104.642ZM77.7767 97.877H80.1086C80.2388 97.877 80.3424 97.9835 80.3424 98.1108C80.3424 98.241 80.2388 98.3446 80.1086 98.3446H77.7767C77.6465 98.3446 77.5429 98.241 77.5429 98.1108C77.5429 97.9835 77.6465 97.877 77.7767 97.877ZM77.7767 96.4773H80.1086C80.2388 96.4773 80.3424 96.5838 80.3424 96.711C80.3424 96.8413 80.2388 96.9448 80.1086 96.9448H77.7767C77.6465 96.9448 77.5429 96.8413 77.5429 96.711C77.5429 96.5838 77.6465 96.4773 77.7767 96.4773ZM77.7767 95.0805H80.1086C80.2388 95.0805 80.3424 95.1841 80.3424 95.3113C80.3424 95.4415 80.2388 95.5451 80.1086 95.5451H77.7767C77.6465 95.5451 77.5429 95.4415 77.5429 95.3113C77.5429 95.1841 77.6465 95.0805 77.7767 95.0805ZM77.7767 93.6807H80.1086C80.2388 93.6807 80.3424 93.7843 80.3424 93.9116C80.3424 94.0418 80.2388 94.1454 80.1086 94.1454H77.7767C77.6465 94.1454 77.5429 94.0418 77.5429 93.9116C77.5429 93.7843 77.6465 93.6807 77.7767 93.6807ZM86.1751 92.281H77.3091C77.1819 92.281 77.0753 92.3846 77.0753 92.5118V105.109C77.0753 105.237 77.1819 105.343 77.3091 105.343H84.5416V104.411H83.3756C83.2454 104.411 83.1418 104.305 83.1418 104.177C83.1418 104.047 83.2454 103.944 83.3756 103.944H84.583C84.6807 103.671 84.9381 103.476 85.24 103.476H86.4059V92.5118C86.4059 92.3846 86.3024 92.281 86.1751 92.281Z" fill="#5C6D49"/>
</g>
<path d="M84.7753 93.447V97.877H85.4737V93.447H84.7753Z" fill="#5C6D49"/>
<path d="M78.626 103.562C79.0077 103.941 79.5315 104.177 80.1086 104.177C80.4341 104.177 80.7419 104.1 81.0171 103.967L80.0494 102.422L78.626 103.562Z" fill="#5C6D49"/>
<path d="M81.4106 103.719C81.8397 103.381 82.1297 102.881 82.1948 102.31H80.5287L81.4106 103.719Z" fill="#5C6D49"/>
<path d="M79.8748 99.9899C78.8272 100.108 78.0104 100.999 78.0104 102.076C78.0104 102.488 78.1318 102.872 78.336 103.195L79.8748 101.964V99.9899Z" fill="#5C6D49"/>
<path d="M81.2745 97.877H81.9759V96.0127H81.2745V97.877Z" fill="#5C6D49"/>
<path d="M82.4404 94.8467V97.877H83.1418V94.8467H82.4404Z" fill="#5C6D49"/>
<mask id="mask2_291_48" style="mask-type:luminance" maskUnits="userSpaceOnUse" x="84" y="103" width="3" height="3">
<path d="M84.7576 103.485H86.1662V105.34H84.7576V103.485Z" fill="white"/>
</mask>
<g mask="url(#mask2_291_48)">
<path d="M85.0062 104.177V105.012L86.0774 103.944H85.2399C85.1127 103.944 85.0062 104.047 85.0062 104.177Z" fill="#5C6D49"/>
</g>
<path d="M80.3423 99.9899V101.842H82.1949C82.0854 100.872 81.313 100.099 80.3423 99.9899Z" fill="#5C6D49"/>
</g>
<defs>
<filter id="filter0_d_291_48" x="0" y="0" width="143" height="193" filterUnits="userSpaceOnUse" color-interpolation-filters="sRGB">
<feFlood flood-opacity="0" result="BackgroundImageFix"/>
<feColorMatrix in="SourceAlpha" type="matrix" values="0 0 0 0 0 0 0 0 0 0 0 0 0 0 0 0 0 0 127 0" result="hardAlpha"/>
<feOffset dy="4"/>
<feGaussianBlur stdDeviation="4.5"/>
<feComposite in2="hardAlpha" operator="out"/>
<feColorMatrix type="matrix" values="0 0 0 0 0 0 0 0 0 0 0 0 0 0 0 0 0 0 0.25 0"/>
<feBlend mode="normal" in2="BackgroundImageFix" result="effect1_dropShadow_291_48"/>
<feBlend mode="normal" in="SourceGraphic" in2="effect1_dropShadow_291_48" result="shape"/>
</filter>
<clipPath id="clip0_291_48">
<rect width="125" height="175" fill="white" transform="translate(9 5)"/>
</clipPath>
</defs>
</svg>
