<svg width="190" height="140" viewBox="0 0 190 140" fill="none" xmlns="http://www.w3.org/2000/svg">
<mask id="mask0_291_85" style="mask-type:luminance" maskUnits="userSpaceOnUse" x="0" y="0" width="189" height="140">
<path d="M0.415619 0H188.97V139.386H0.415619V0Z" fill="white"/>
</mask>
<g mask="url(#mask0_291_85)">
<path fill-rule="evenodd" clip-rule="evenodd" d="M1.08569 107.709C1.08569 125.348 15.4338 139.698 33.069 139.698C49.8581 139.698 63.6842 126.68 64.955 110.199H33.069C31.6977 110.199 30.5825 109.087 30.5825 107.709V75.8177C14.0949 77.0919 1.08569 90.9108 1.08569 107.709ZM33.6979 22.4261H43.5075V12.6115H33.6979V22.4261ZM43.5075 46.2411V36.4298H33.6979V46.2411H43.5075ZM161.255 73.3632V123.976H176.822V73.3632H161.255ZM127.252 63.3866V123.976H142.822V63.3866H127.252ZM93.2492 86.5239V123.976H108.836V86.5239H93.2492ZM43.0147 60.7862C63.3957 60.7862 79.9838 77.3708 79.9838 97.7521C79.9838 99.1301 78.8622 100.242 77.4942 100.242H43.0147C41.6402 100.242 40.525 99.1301 40.525 97.7521V63.2763C40.525 61.9016 41.6402 60.7862 43.0147 60.7862ZM35.5587 105.219V73.2335C35.5587 71.8588 34.4402 70.7434 33.069 70.7434C27.7525 70.7434 22.7018 71.875 18.1277 73.9047V5.41678C18.1277 2.0415 20.8734 -0.698273 24.2416 -0.698273H184.972C188.343 -0.698273 191.086 2.0415 191.086 5.41678V131.245C191.086 134.624 188.34 137.364 184.972 137.364H55.113C64.1608 130.623 70.0219 119.839 70.0219 107.709C70.0219 106.338 68.9229 105.219 67.5484 105.219H35.5587ZM88.3865 46.4032C88.3865 45.0252 87.2681 43.9131 85.9001 43.9131H56.7371C55.3659 43.9131 54.2474 45.0252 54.2474 46.4032C54.2474 47.7779 55.3691 48.8933 56.7371 48.8933H85.8936C87.2681 48.8933 88.3865 47.7779 88.3865 46.4032ZM93.622 38.7513C94.9965 38.7513 96.1116 37.6391 96.1116 36.2612C96.1116 34.8896 94.9932 33.7743 93.622 33.7743H56.7371C55.3659 33.7743 54.2474 34.8896 54.2474 36.2612C54.2474 37.6391 55.3691 38.7513 56.7371 38.7513H93.622ZM48.4868 33.9396V48.7312C48.4868 50.1059 47.3652 51.2213 45.9971 51.2213H31.2082C29.8337 51.2213 28.7185 50.1059 28.7185 48.7312V33.9396C28.7185 32.5616 29.8369 31.4495 31.2082 31.4495H45.9971C47.3717 31.4495 48.4868 32.5616 48.4868 33.9396ZM85.8936 25.0751C87.2681 25.0751 88.3833 23.963 88.3833 22.585C88.3833 21.2135 87.2648 20.0981 85.8936 20.0981H56.7371C55.3659 20.0981 54.2474 21.2135 54.2474 22.585C54.2474 23.963 55.3691 25.0751 56.7371 25.0751H85.8936ZM93.622 14.9395C94.9965 14.9395 96.1116 13.8242 96.1116 12.4494C96.1116 11.0747 94.9932 9.9593 93.622 9.9593H56.7371C55.3659 9.9593 54.2474 11.0747 54.2474 12.4494C54.2474 13.8242 55.3691 14.9395 56.7371 14.9395H93.622ZM48.4868 10.1214V24.913C48.4868 26.2877 47.3652 27.4031 45.9971 27.4031H31.2082C29.8337 27.4031 28.7185 26.2877 28.7185 24.913V10.1214C28.7185 8.7499 29.8369 7.6313 31.2082 7.6313H45.9971C47.3717 7.6313 48.4868 8.7499 48.4868 10.1214ZM122.269 126.466V60.8964C122.269 59.5249 123.391 58.4063 124.759 58.4063H145.312C146.683 58.4063 147.798 59.5249 147.798 60.8964V126.466C147.798 127.838 146.68 128.953 145.312 128.953H124.759C123.391 128.953 122.269 127.838 122.269 126.466ZM156.276 126.466V70.8731C156.276 69.4951 157.375 68.383 158.765 68.383H179.318C180.689 68.383 181.805 69.4951 181.805 70.8731V126.466C181.805 127.838 180.686 128.953 179.318 128.953H158.765C157.375 128.953 156.276 127.838 156.276 126.466ZM90.7562 81.5437H111.325C112.7 81.5437 113.815 82.659 113.815 84.0338V126.466C113.815 127.838 112.693 128.953 111.325 128.953H90.7562C89.385 128.953 88.2666 127.838 88.2666 126.466V84.0338C88.2666 82.659 89.3882 81.5437 90.7562 81.5437ZM45.5076 95.262V65.8605C61.1589 67.0699 73.7013 79.608 74.9007 95.262H45.5076Z" fill="#5C6D49"/>
</g>
<mask id="mask1_291_85" style="mask-type:luminance" maskUnits="userSpaceOnUse" x="137" y="22" width="15" height="11">
<path d="M137.733 22.3183H151.244V32.1412H137.733V22.3183Z" fill="white"/>
</mask>
<g mask="url(#mask1_291_85)">
<path fill-rule="evenodd" clip-rule="evenodd" d="M137.74 29.9023C137.74 31.1358 138.745 32.1412 139.979 32.1412C141.155 32.1412 142.122 31.2289 142.212 30.0757H139.979C139.883 30.0757 139.805 29.9986 139.805 29.9023V27.6698C138.652 27.7597 137.74 28.7266 137.74 29.9023ZM140.024 23.934H140.712V23.2498H140.024V23.934ZM140.712 25.6012V24.9137H140.024V25.6012H140.712ZM148.953 27.4996V31.0394H150.042V27.4996H148.953ZM146.572 26.8025V31.0394H147.661V26.8025H146.572ZM144.191 28.4215V31.0394H145.284V28.4215H144.191ZM140.676 26.6194C142.103 26.6194 143.263 27.779 143.263 29.2052C143.263 29.3016 143.185 29.3787 143.089 29.3787H140.676C140.58 29.3787 140.503 29.3016 140.503 29.2052V26.7929C140.503 26.6965 140.58 26.6194 140.676 26.6194ZM140.152 29.7288V27.4899C140.152 27.3936 140.075 27.3165 139.979 27.3165C139.606 27.3165 139.253 27.3968 138.935 27.5381V22.7455C138.935 22.5078 139.124 22.3183 139.362 22.3183H150.611C150.848 22.3183 151.041 22.5078 151.041 22.7455V31.5501C151.041 31.7846 150.848 31.9773 150.611 31.9773H141.521C142.154 31.5052 142.565 30.7503 142.565 29.9023C142.565 29.8059 142.488 29.7288 142.392 29.7288H140.152ZM143.851 25.614C143.851 25.5176 143.773 25.4405 143.677 25.4405H141.637C141.54 25.4405 141.463 25.5176 141.463 25.614C141.463 25.7104 141.54 25.7875 141.637 25.7875H143.677C143.773 25.7875 143.851 25.7104 143.851 25.614ZM144.217 25.0776C144.313 25.0776 144.394 25.0005 144.394 24.9041C144.394 24.8077 144.313 24.7307 144.217 24.7307H141.637C141.54 24.7307 141.463 24.8077 141.463 24.9041C141.463 25.0005 141.54 25.0776 141.637 25.0776H144.217ZM141.059 24.7403V25.7746C141.059 25.871 140.981 25.9513 140.885 25.9513H139.85C139.754 25.9513 139.674 25.871 139.674 25.7746V24.7403C139.674 24.6439 139.754 24.5668 139.85 24.5668H140.885C140.981 24.5668 141.059 24.6439 141.059 24.7403ZM143.677 24.1203C143.773 24.1203 143.851 24.0432 143.851 23.9469C143.851 23.8505 143.773 23.7734 143.677 23.7734H141.637C141.54 23.7734 141.463 23.8505 141.463 23.9469C141.463 24.0432 141.54 24.1203 141.637 24.1203H143.677ZM144.217 23.4104C144.313 23.4104 144.394 23.3334 144.394 23.237C144.394 23.1406 144.313 23.0635 144.217 23.0635H141.637C141.54 23.0635 141.463 23.1406 141.463 23.237C141.463 23.3334 141.54 23.4104 141.637 23.4104H144.217ZM141.059 23.0732V24.1107C141.059 24.2071 140.981 24.2842 140.885 24.2842H139.85C139.754 24.2842 139.674 24.2071 139.674 24.1107V23.0732C139.674 22.98 139.754 22.8997 139.85 22.8997H140.885C140.981 22.8997 141.059 22.98 141.059 23.0732ZM146.222 31.2161V26.6258C146.222 26.5327 146.302 26.4524 146.398 26.4524H147.835C147.931 26.4524 148.011 26.5327 148.011 26.6258V31.2161C148.011 31.3124 147.931 31.3895 147.835 31.3895H146.398C146.302 31.3895 146.222 31.3124 146.222 31.2161ZM148.602 31.2161V27.3261C148.602 27.2297 148.68 27.1494 148.779 27.1494H150.215C150.312 27.1494 150.389 27.2297 150.389 27.3261V31.2161C150.389 31.3124 150.312 31.3895 150.215 31.3895H148.779C148.68 31.3895 148.602 31.3124 148.602 31.2161ZM144.018 28.0713H145.457C145.553 28.0713 145.631 28.1516 145.631 28.2448V31.2161C145.631 31.3124 145.553 31.3895 145.457 31.3895H144.018C143.921 31.3895 143.844 31.3124 143.844 31.2161V28.2448C143.844 28.1516 143.921 28.0713 144.018 28.0713ZM140.85 29.0318V26.976C141.945 27.0595 142.822 27.9364 142.906 29.0318H140.85Z" fill="#5C6D49"/>
</g>
</svg>
