<svg width="24" height="24" viewBox="0 0 24 24" fill="none" xmlns="http://www.w3.org/2000/svg">
<path d="M3.75 21.2571H7.875V14.4C7.875 14.0114 8.007 13.6859 8.271 13.4235C8.535 13.1611 8.86133 13.0295 9.25 13.0286H14.75C15.1396 13.0286 15.4664 13.1602 15.7304 13.4235C15.9944 13.6869 16.1259 14.0123 16.125 14.4V21.2571H20.25V8.91428L12 2.74286L3.75 8.91428V21.2571ZM1 21.2571V8.91428C1 8.48 1.09762 8.06857 1.29287 7.68C1.48812 7.29143 1.75717 6.97143 2.1 6.72L10.35 0.548571C10.8312 0.182857 11.3812 0 12 0C12.6187 0 13.1687 0.182857 13.65 0.548571L21.9 6.72C22.2437 6.97143 22.5132 7.29143 22.7085 7.68C22.9037 8.06857 23.0009 8.48 23 8.91428V21.2571C23 22.0114 22.7305 22.6574 22.1915 23.195C21.6525 23.7326 21.0053 24.0009 20.25 24H14.75C14.3604 24 14.0341 23.8683 13.771 23.605C13.5079 23.3417 13.3759 23.0162 13.375 22.6286V15.7714H10.625V22.6286C10.625 23.0171 10.493 23.3431 10.229 23.6064C9.965 23.8697 9.63866 24.0009 9.25 24H3.75C2.99375 24 2.34658 23.7317 1.8085 23.195C1.27042 22.6583 1.00092 22.0123 1 21.2571Z" fill="#E8F1D4"/>
</svg>
