<svg width="60" height="60" viewBox="0 0 60 60" fill="none" xmlns="http://www.w3.org/2000/svg">
<path d="M22.5 5H7.5C6.83696 5 6.20107 5.26339 5.73223 5.73223C5.26339 6.20107 5 6.83696 5 7.5V22.5C5 23.163 5.26339 23.7989 5.73223 24.2678C6.20107 24.7366 6.83696 25 7.5 25H22.5C23.163 25 23.7989 24.7366 24.2678 24.2678C24.7366 23.7989 25 23.163 25 22.5V7.5C25 6.83696 24.7366 6.20107 24.2678 5.73223C23.7989 5.26339 23.163 5 22.5 5ZM22.5 35H7.5C6.83696 35 6.20107 35.2634 5.73223 35.7322C5.26339 36.2011 5 36.837 5 37.5V52.5C5 53.163 5.26339 53.7989 5.73223 54.2678C6.20107 54.7366 6.83696 55 7.5 55H22.5C23.163 55 23.7989 54.7366 24.2678 54.2678C24.7366 53.7989 25 53.163 25 52.5V37.5C25 36.837 24.7366 36.2011 24.2678 35.7322C23.7989 35.2634 23.163 35 22.5 35ZM52.5 5H37.5C36.837 5 36.2011 5.26339 35.7322 5.73223C35.2634 6.20107 35 6.83696 35 7.5V22.5C35 23.163 35.2634 23.7989 35.7322 24.2678C36.2011 24.7366 36.837 25 37.5 25H52.5C53.163 25 53.7989 24.7366 54.2678 24.2678C54.7366 23.7989 55 23.163 55 22.5V7.5C55 6.83696 54.7366 6.20107 54.2678 5.73223C53.7989 5.26339 53.163 5 52.5 5Z" fill="#E8F1D4" stroke="#E8F1D4" stroke-width="2" stroke-linejoin="round"/>
<path d="M35 35H55M45 45H55M35 55H55" stroke="#E8F1D4" stroke-width="2" stroke-linecap="round" stroke-linejoin="round"/>
</svg>
