<svg xmlns="http://www.w3.org/2000/svg" xmlns:xlink="http://www.w3.org/1999/xlink" width="308" zoomAndPan="magnify" viewBox="0 0 230.87999 146.249994" height="195" preserveAspectRatio="xMidYMid meet" version="1.0"><defs><clipPath id="c18db2fd20"><path d="M 138 67 L 229.605469 67 L 229.605469 145.503906 L 138 145.503906 Z M 138 67 " clip-rule="nonzero"/></clipPath><clipPath id="b572677ea1"><path d="M 133.941406 111 L 137 111 L 137 116.867188 L 133.941406 116.867188 Z M 133.941406 111 " clip-rule="nonzero"/></clipPath><clipPath id="dd0c0b5a94"><path d="M 137 108.660156 L 144 108.660156 L 144 114 L 137 114 Z M 137 108.660156 " clip-rule="nonzero"/></clipPath><clipPath id="9feb7c50c0"><path d="M 140 115 L 142 115 L 142 116.867188 L 140 116.867188 Z M 140 115 " clip-rule="nonzero"/></clipPath><clipPath id="7d169a8f80"><path d="M 145 113 L 146.628906 113 L 146.628906 115 L 145 115 Z M 145 113 " clip-rule="nonzero"/></clipPath><clipPath id="4eb5c353fe"><path d="M 141 112 L 146.628906 112 L 146.628906 116.867188 L 141 116.867188 Z M 141 112 " clip-rule="nonzero"/></clipPath></defs><path fill="#1f2f0d" d="M 25.867188 75.050781 C 24.261719 74.480469 10.082031 69.167969 6.21875 58.113281 C 5.84375 57.039062 5.53125 55.773438 5.375 54.359375 C 0.890625 66.796875 2.578125 80.300781 3.117188 81.539062 L 13.027344 104.304688 L 2.015625 128.125 C 0.507812 131.386719 1.929688 135.253906 5.195312 136.761719 C 6.078125 137.171875 7.007812 137.363281 7.921875 137.363281 C 10.378906 137.363281 12.734375 135.964844 13.832031 133.585938 L 26.070312 107.117188 C 26.847656 105.429688 26.871094 103.492188 26.128906 101.785156 L 21.71875 91.65625 L 34.554688 105.84375 L 35.265625 130.519531 C 35.367188 134.050781 38.261719 136.84375 41.765625 136.84375 C 41.832031 136.84375 41.894531 136.839844 41.957031 136.839844 C 45.550781 136.738281 48.382812 133.738281 48.277344 130.144531 L 47.496094 103.070312 C 47.453125 101.519531 46.855469 100.039062 45.816406 98.890625 L 30.71875 82.195312 C 30.71875 82.195312 29.808594 79.800781 29.429688 76.171875 L 26.054688 75.113281 C 25.988281 75.089844 25.925781 75.070312 25.867188 75.050781 Z M 25.867188 75.050781 " fill-opacity="1" fill-rule="nonzero"/><path fill="#1f2f0d" d="M 41.074219 68.585938 L 52.714844 72.246094 C 54.082031 72.671875 55.199219 73.609375 55.863281 74.878906 C 55.984375 75.117188 56.085938 75.363281 56.171875 75.613281 L 73.636719 75.613281 L 73.636719 50.847656 L 41.074219 50.847656 Z M 41.074219 68.585938 " fill-opacity="1" fill-rule="nonzero"/><path fill="#1f2f0d" d="M 7.347656 57.71875 C 11.027344 68.246094 24.71875 73.371094 26.269531 73.921875 C 26.316406 73.9375 26.363281 73.953125 26.414062 73.96875 L 49.859375 81.335938 C 50.273438 81.464844 50.695312 81.527344 51.109375 81.527344 C 52.878906 81.527344 54.523438 80.390625 55.082031 78.609375 C 55.769531 76.414062 54.550781 74.078125 52.355469 73.386719 L 28.992188 66.046875 C 25.773438 64.878906 17.195312 60.675781 15.207031 54.953125 C 15 54.359375 14.875 53.757812 14.824219 53.144531 L 16.066406 53.476562 C 16.125 53.84375 16.214844 54.203125 16.339844 54.5625 C 18.164062 59.816406 26.34375 63.804688 29.375 64.910156 L 30.414062 65.238281 C 31.144531 62.859375 32.28125 60.417969 33.996094 58.046875 L 39.46875 67.300781 C 39.585938 67.503906 39.726562 67.6875 39.878906 67.863281 L 39.878906 51.621094 L 37.285156 47.238281 C 37.28125 47.230469 37.277344 47.222656 37.273438 47.214844 C 35.078125 48.929688 32.324219 49.945312 29.351562 49.945312 C 28.863281 49.945312 28.375 49.917969 27.890625 49.863281 C 22.84375 49.296875 18.804688 45.875 17.183594 41.398438 L 14.261719 40.734375 C 14.25 40.746094 14.238281 40.753906 14.230469 40.761719 C 12.492188 40.273438 10.570312 40.957031 9.566406 42.570312 C 7.660156 45.628906 6.804688 48.453125 6.558594 50.941406 C 6.285156 53.644531 6.730469 55.953125 7.347656 57.71875 Z M 7.347656 57.71875 " fill-opacity="1" fill-rule="nonzero"/><path fill="#1f2f0d" d="M 33.074219 25.929688 C 33.800781 26.175781 34.5 26.492188 35.167969 26.875 C 35.835938 27.257812 36.457031 27.703125 37.039062 28.207031 C 37.617188 28.714844 38.140625 29.269531 38.613281 29.878906 C 39.082031 30.488281 39.488281 31.136719 39.828125 31.828125 C 40.171875 32.515625 40.441406 33.230469 40.644531 33.976562 C 40.84375 34.71875 40.972656 35.472656 41.023438 36.238281 C 41.074219 37.007812 41.050781 37.773438 40.953125 38.535156 C 40.855469 39.296875 40.683594 40.042969 40.4375 40.773438 C 40.191406 41.503906 39.878906 42.199219 39.496094 42.867188 C 39.113281 43.535156 38.667969 44.160156 38.164062 44.738281 C 37.65625 45.316406 37.097656 45.84375 36.488281 46.3125 C 35.878906 46.78125 35.230469 47.1875 34.542969 47.53125 C 33.851562 47.871094 33.136719 48.144531 32.394531 48.34375 C 31.652344 48.546875 30.898438 48.671875 30.128906 48.722656 C 29.363281 48.777344 28.597656 48.753906 27.835938 48.652344 C 27.070312 48.554688 26.324219 48.382812 25.597656 48.136719 C 24.867188 47.894531 24.167969 47.578125 23.5 47.195312 C 22.835938 46.8125 22.210938 46.367188 21.632812 45.863281 C 21.050781 45.355469 20.527344 44.800781 20.058594 44.191406 C 19.585938 43.582031 19.183594 42.929688 18.839844 42.242188 C 18.496094 41.554688 18.226562 40.835938 18.027344 40.09375 C 17.824219 39.351562 17.699219 38.597656 17.644531 37.828125 C 17.59375 37.0625 17.617188 36.296875 17.714844 35.535156 C 17.8125 34.769531 17.984375 34.023438 18.230469 33.296875 C 18.476562 32.566406 18.792969 31.867188 19.175781 31.203125 C 19.558594 30.535156 20 29.910156 20.507812 29.332031 C 21.011719 28.753906 21.570312 28.226562 22.179688 27.757812 C 22.789062 27.289062 23.4375 26.882812 24.128906 26.539062 C 24.816406 26.199219 25.53125 25.925781 26.273438 25.726562 C 27.015625 25.523438 27.773438 25.398438 28.539062 25.347656 C 29.308594 25.292969 30.074219 25.316406 30.835938 25.414062 C 31.597656 25.515625 32.34375 25.6875 33.074219 25.929688 Z M 33.074219 25.929688 " fill-opacity="1" fill-rule="nonzero"/><path fill="#1f2f0d" d="M 176.035156 48.214844 C 176.5625 46.367188 178.390625 45.238281 180.246094 45.53125 L 187.417969 20.878906 L 176.589844 17.726562 L 173.824219 27.230469 L 179.664062 28.929688 L 171.394531 57.355469 L 173.445312 57.355469 Z M 176.035156 48.214844 " fill-opacity="1" fill-rule="nonzero"/><path fill="#1f2f0d" d="M 166.898438 26.839844 L 158.023438 57.355469 L 169.769531 57.355469 L 177.730469 29.992188 Z M 166.898438 26.839844 " fill-opacity="1" fill-rule="nonzero"/><path fill="#1f2f0d" d="M 194.503906 113.570312 C 193.636719 113.101562 192.800781 112.585938 191.996094 112.023438 L 186.167969 112.023438 L 186.167969 114.109375 L 194.503906 114.109375 Z M 194.503906 113.570312 " fill-opacity="1" fill-rule="nonzero"/><path fill="#1f2f0d" d="M 188.273438 64.902344 L 188.273438 58.917969 L 180.824219 58.917969 L 178.535156 66.984375 L 192.421875 66.984375 L 192.421875 69.546875 C 193.097656 69.097656 193.789062 68.679688 194.503906 68.292969 L 194.503906 64.902344 Z M 188.273438 64.902344 " fill-opacity="1" fill-rule="nonzero"/><path fill="#1f2f0d" d="M 87.132812 77.992188 L 74.96875 19.175781 C 74.714844 17.949219 74.957031 16.695312 75.644531 15.648438 C 76.332031 14.601562 77.386719 13.886719 78.613281 13.632812 L 130.882812 2.824219 C 131.199219 2.757812 131.523438 2.726562 131.839844 2.726562 C 132.746094 2.726562 133.632812 2.988281 134.40625 3.496094 C 135.457031 4.1875 136.171875 5.238281 136.425781 6.46875 L 154.34375 93.125 L 156.472656 93.125 L 151.066406 66.984375 L 170.714844 66.984375 L 173.003906 58.917969 L 157.046875 58.917969 L 157.046875 64.902344 L 150.636719 64.902344 L 138.464844 6.046875 C 137.707031 2.386719 134.117188 0.0273438 130.460938 0.785156 L 78.191406 11.589844 C 76.421875 11.957031 74.898438 12.992188 73.902344 14.503906 C 72.910156 16.015625 72.5625 17.824219 72.929688 19.597656 L 85.007812 77.992188 Z M 87.132812 77.992188 " fill-opacity="1" fill-rule="nonzero"/><path fill="#1f2f0d" d="M 162.976562 100.003906 L 167.550781 100.003906 L 181.773438 49.84375 C 181.933594 49.277344 181.863281 48.683594 181.578125 48.171875 C 181.289062 47.65625 180.820312 47.285156 180.253906 47.125 C 179.089844 46.796875 177.871094 47.476562 177.539062 48.644531 Z M 162.976562 100.003906 " fill-opacity="1" fill-rule="nonzero"/><path fill="#1f2f0d" d="M 102.171875 101.726562 L 120.746094 101.726562 L 120.746094 93.125 L 126.515625 93.125 C 126.964844 90.402344 128.472656 88.035156 130.605469 86.457031 L 130.605469 79.554688 L 82.066406 79.554688 L 82.066406 128.09375 L 102.171875 128.09375 Z M 102.171875 101.726562 " fill-opacity="1" fill-rule="nonzero"/><path fill="#1f2f0d" d="M 178.105469 78.441406 L 171.496094 100.003906 L 175.09375 100.003906 L 181.394531 79.449219 C 181.671875 78.539062 181.160156 77.578125 180.253906 77.300781 C 179.34375 77.023438 178.382812 77.53125 178.105469 78.441406 Z M 178.105469 78.441406 " fill-opacity="1" fill-rule="nonzero"/><path fill="#1f2f0d" d="M 128.09375 93.125 L 145.457031 93.125 C 144.664062 89.058594 141.074219 85.976562 136.773438 85.976562 C 132.476562 85.976562 128.886719 89.058594 128.09375 93.125 Z M 128.09375 93.125 " fill-opacity="1" fill-rule="nonzero"/><path fill="#1f2f0d" d="M 111.34375 126.011719 C 111.34375 120.609375 115.476562 116.160156 120.746094 115.648438 L 120.746094 103.289062 L 103.734375 103.289062 L 103.734375 132.910156 L 113.980469 132.910156 C 112.347656 131.070312 111.34375 128.660156 111.34375 126.011719 Z M 111.34375 126.011719 " fill-opacity="1" fill-rule="nonzero"/><path fill="#1f2f0d" d="M 184.605469 104.128906 C 184.109375 103.304688 183.664062 102.449219 183.261719 101.566406 L 162.089844 101.566406 L 162.089844 110.09375 L 177.914062 110.09375 L 177.914062 132.910156 L 184.605469 132.910156 Z M 184.605469 104.128906 " fill-opacity="1" fill-rule="nonzero"/><path fill="#1f2f0d" d="M 162.089844 111.65625 L 176.351562 111.65625 L 176.351562 132.910156 L 162.089844 132.910156 Z M 162.089844 111.65625 " fill-opacity="1" fill-rule="nonzero"/><path fill="#1f2f0d" d="M 160.527344 94.6875 L 122.308594 94.6875 L 122.308594 115.625 C 127.789062 115.914062 132.167969 120.453125 132.167969 126.011719 C 132.167969 128.660156 131.164062 131.070312 129.53125 132.910156 L 160.527344 132.910156 Z M 160.527344 94.6875 " fill-opacity="1" fill-rule="nonzero"/><path fill="#1f2f0d" d="M 121.753906 134.859375 C 126.636719 134.859375 130.605469 130.890625 130.605469 126.011719 C 130.605469 121.128906 126.636719 117.160156 121.753906 117.160156 C 116.875 117.160156 112.90625 121.128906 112.90625 126.011719 C 112.90625 130.890625 116.875 134.859375 121.753906 134.859375 Z M 121.753906 134.859375 " fill-opacity="1" fill-rule="nonzero"/><path fill="#1f2f0d" d="M 100.945312 59.957031 L 102.335938 59.957031 L 102.335938 50.511719 L 108.855469 50.511719 L 108.855469 75.734375 L 111.378906 75.734375 L 111.378906 50.511719 L 126.167969 50.511719 L 121.972656 32.195312 C 121.476562 30.03125 119.550781 28.5 117.332031 28.5 L 102.90625 28.5 C 100.683594 28.5 98.761719 30.03125 98.265625 32.195312 L 94.066406 50.511719 L 100.945312 50.511719 Z M 100.945312 59.957031 " fill-opacity="1" fill-rule="nonzero"/><path fill="#1f2f0d" d="M 194.09375 85.789062 C 195.859375 88.339844 198.351562 89.398438 200.242188 89.835938 C 200.765625 86.777344 203.429688 84.4375 206.636719 84.4375 C 207.066406 84.4375 207.484375 84.480469 207.890625 84.5625 C 210.03125 81.679688 214.554688 80.566406 213.015625 77.292969 C 210.90625 72.816406 203.332031 73.09375 198.691406 74.773438 C 194.136719 76.421875 190.886719 81.144531 194.09375 85.789062 Z M 194.09375 85.789062 " fill-opacity="1" fill-rule="nonzero"/><path fill="#1f2f0d" d="M 208.832031 97.039062 C 208.144531 97.285156 207.40625 97.425781 206.636719 97.425781 C 203.65625 97.425781 201.144531 95.410156 200.382812 92.667969 C 197.175781 91.632812 194.527344 88.570312 192.316406 91.136719 C 189.085938 94.886719 192.425781 101.6875 195.855469 105.242188 C 199.214844 108.730469 204.855469 109.773438 207.785156 104.949219 C 209.589844 101.980469 209.3125 98.941406 208.832031 97.039062 Z M 208.832031 97.039062 " fill-opacity="1" fill-rule="nonzero"/><path fill="#1f2f0d" d="M 210.816406 85.96875 C 212.230469 87.160156 213.132812 88.941406 213.132812 90.933594 C 213.132812 92.519531 212.558594 93.976562 211.609375 95.105469 C 214.011719 98.164062 212.820312 103.496094 216.714844 103.371094 C 221.660156 103.207031 224.40625 96.144531 224.703125 91.214844 C 224.996094 86.382812 221.945312 81.523438 216.40625 82.632812 C 213.8125 83.152344 212.007812 84.589844 210.816406 85.96875 Z M 210.816406 85.96875 " fill-opacity="1" fill-rule="nonzero"/><path fill="#1f2f0d" d="M 206.636719 96.191406 C 209.542969 96.191406 211.898438 93.839844 211.898438 90.933594 C 211.898438 88.027344 209.542969 85.671875 206.636719 85.671875 C 203.730469 85.671875 201.375 88.027344 201.375 90.933594 C 201.375 93.839844 203.730469 96.191406 206.636719 96.191406 Z M 206.636719 96.191406 " fill-opacity="1" fill-rule="nonzero"/><g clip-path="url(#c18db2fd20)"><path fill="#1f2f0d" d="M 196.324219 141.492188 C 196.324219 139.328125 193.328125 138.777344 190.429688 138.246094 C 188.027344 137.808594 185.304688 137.308594 185.082031 135.960938 C 185.003906 135.515625 185.101562 135.152344 185.378906 134.824219 C 185.484375 134.699219 185.617188 134.582031 185.765625 134.472656 C 185.886719 134.382812 186.019531 134.300781 186.167969 134.222656 C 187.722656 133.398438 190.628906 133.109375 193.253906 133.011719 L 193.253906 134.578125 L 220.019531 134.578125 L 220.019531 132.078125 C 220.019531 130.945312 219.101562 130.027344 217.972656 130.027344 L 210.328125 130.027344 L 209.214844 116.492188 L 209 113.898438 C 220.640625 112.714844 229.722656 102.882812 229.722656 90.929688 C 229.722656 78.183594 219.386719 67.847656 206.636719 67.847656 C 193.886719 67.847656 183.550781 78.183594 183.550781 90.929688 C 183.550781 102.882812 192.632812 112.714844 204.273438 113.898438 L 204.058594 116.492188 L 202.945312 130.027344 L 195.300781 130.027344 C 194.207031 130.027344 193.320312 130.890625 193.265625 131.96875 C 190.496094 132.070312 187.898438 132.351562 186.167969 133.085938 C 185.5 133.367188 184.953125 133.714844 184.585938 134.148438 C 184.496094 134.253906 184.429688 134.363281 184.363281 134.472656 C 184.0625 134.964844 183.949219 135.519531 184.054688 136.132812 C 184.398438 138.199219 187.367188 138.746094 190.242188 139.269531 C 192.71875 139.726562 195.28125 140.195312 195.28125 141.492188 C 195.28125 141.671875 195.222656 141.742188 195.164062 141.792969 C 194.457031 142.382812 191.40625 141.832031 188.453125 141.300781 C 185.164062 140.707031 181.308594 140.011719 177.671875 140.078125 C 176.304688 138.464844 172.78125 137.089844 167.507812 137.417969 C 161.332031 137.808594 160.847656 138.96875 160.6875 139.351562 C 160.59375 139.582031 160.496094 140.042969 160.929688 140.539062 C 162.191406 141.988281 168.011719 143.09375 173.464844 141.652344 C 174.621094 141.347656 175.859375 141.1875 177.140625 141.136719 C 177.363281 141.558594 177.367188 141.964844 177.148438 142.34375 C 176.546875 143.386719 174.15625 144.449219 169.277344 144.296875 C 162.925781 144.101562 159.164062 142.648438 155.84375 141.363281 C 152.910156 140.230469 150.109375 139.152344 146.050781 139.136719 C 145.6875 138.050781 144.542969 137.417969 143.425781 137.726562 L 140.460938 138.535156 L 140.765625 139.65625 L 138.878906 140.171875 C 138.664062 140.230469 138.535156 140.457031 138.59375 140.671875 C 138.652344 140.890625 138.878906 141.019531 139.09375 140.960938 L 140.980469 140.445312 L 141.320312 141.6875 L 139.433594 142.203125 C 139.21875 142.261719 139.089844 142.488281 139.148438 142.707031 C 139.207031 142.921875 139.433594 143.050781 139.648438 142.992188 L 141.539062 142.476562 L 141.84375 143.597656 L 144.808594 142.785156 C 145.945312 142.472656 146.617188 141.316406 146.339844 140.179688 C 150.03125 140.238281 152.589844 141.222656 155.46875 142.335938 C 158.863281 143.648438 162.714844 145.136719 169.246094 145.339844 C 169.558594 145.347656 169.867188 145.351562 170.167969 145.351562 C 174.28125 145.351562 177.128906 144.460938 178.050781 142.863281 C 178.367188 142.316406 178.433594 141.710938 178.253906 141.117188 C 181.625 141.128906 185.199219 141.773438 188.269531 142.328125 C 192.175781 143.03125 194.753906 143.496094 195.832031 142.59375 C 196.152344 142.324219 196.324219 141.945312 196.324219 141.492188 Z M 186.226562 90.929688 C 186.226562 79.679688 195.382812 70.523438 206.636719 70.523438 C 217.890625 70.523438 227.046875 79.679688 227.046875 90.929688 C 227.046875 102.183594 217.890625 111.34375 206.636719 111.34375 C 195.382812 111.34375 186.226562 102.183594 186.226562 90.929688 Z M 173.199219 140.644531 C 168.640625 141.851562 163.605469 141.132812 162 140.089844 C 161.726562 139.910156 161.652344 139.78125 161.648438 139.757812 C 161.648438 139.75 162.050781 138.804688 167.574219 138.460938 C 168.089844 138.425781 168.585938 138.410156 169.0625 138.410156 C 172.457031 138.410156 174.910156 139.183594 176.222656 140.148438 C 175.179688 140.230469 174.164062 140.390625 173.199219 140.644531 Z M 173.199219 140.644531 " fill-opacity="1" fill-rule="nonzero"/></g><g clip-path="url(#b572677ea1)"><path fill="#1f2f0d" d="M 135.347656 112.800781 C 135.257812 112.769531 134.476562 112.476562 134.261719 111.867188 C 134.242188 111.808594 134.222656 111.738281 134.214844 111.660156 C 133.96875 112.347656 134.0625 113.089844 134.089844 113.160156 L 134.636719 114.417969 L 134.03125 115.730469 C 133.945312 115.910156 134.027344 116.125 134.207031 116.207031 C 134.253906 116.230469 134.304688 116.242188 134.355469 116.242188 C 134.492188 116.242188 134.621094 116.164062 134.683594 116.03125 L 135.359375 114.570312 C 135.402344 114.476562 135.402344 114.371094 135.363281 114.277344 L 135.117188 113.71875 L 135.828125 114.5 L 135.867188 115.863281 C 135.871094 116.058594 136.03125 116.210938 136.222656 116.210938 C 136.226562 116.210938 136.230469 116.210938 136.234375 116.210938 C 136.433594 116.207031 136.589844 116.039062 136.582031 115.84375 L 136.539062 114.347656 C 136.539062 114.261719 136.503906 114.179688 136.449219 114.117188 L 135.613281 113.195312 C 135.613281 113.195312 135.5625 113.0625 135.542969 112.863281 L 135.355469 112.804688 C 135.355469 112.804688 135.351562 112.800781 135.347656 112.800781 Z M 135.347656 112.800781 " fill-opacity="1" fill-rule="nonzero"/></g><path fill="#1f2f0d" d="M 136.1875 112.445312 L 136.828125 112.648438 C 136.902344 112.671875 136.964844 112.722656 137.003906 112.792969 C 137.007812 112.804688 137.015625 112.820312 137.019531 112.832031 L 137.984375 112.832031 L 137.984375 111.464844 L 136.1875 111.464844 Z M 136.1875 112.445312 " fill-opacity="1" fill-rule="nonzero"/><path fill="#1f2f0d" d="M 134.324219 111.84375 C 134.527344 112.425781 135.285156 112.707031 135.367188 112.738281 C 135.371094 112.738281 135.375 112.742188 135.378906 112.742188 L 136.671875 113.148438 C 136.695312 113.15625 136.71875 113.160156 136.738281 113.160156 C 136.835938 113.160156 136.929688 113.097656 136.960938 112.996094 C 136.996094 112.875 136.929688 112.746094 136.808594 112.710938 L 135.519531 112.304688 C 135.339844 112.238281 134.867188 112.007812 134.757812 111.691406 C 134.746094 111.660156 134.738281 111.625 134.738281 111.59375 L 134.804688 111.609375 C 134.808594 111.632812 134.8125 111.652344 134.820312 111.671875 C 134.921875 111.960938 135.375 112.179688 135.539062 112.242188 L 135.597656 112.261719 C 135.636719 112.128906 135.699219 111.992188 135.796875 111.863281 L 136.097656 112.375 C 136.105469 112.386719 136.113281 112.394531 136.121094 112.40625 L 136.121094 111.507812 L 135.976562 111.265625 C 135.855469 111.359375 135.703125 111.414062 135.539062 111.414062 C 135.511719 111.414062 135.484375 111.414062 135.457031 111.410156 C 135.179688 111.378906 134.957031 111.191406 134.867188 110.945312 L 134.707031 110.90625 C 134.707031 110.90625 134.707031 110.910156 134.703125 110.910156 C 134.609375 110.882812 134.503906 110.917969 134.445312 111.007812 C 134.34375 111.175781 134.292969 111.332031 134.28125 111.472656 C 134.265625 111.621094 134.289062 111.746094 134.324219 111.84375 Z M 134.324219 111.84375 " fill-opacity="1" fill-rule="nonzero"/><path fill="#1f2f0d" d="M 135.746094 110.089844 C 135.914062 110.148438 136.039062 110.257812 136.117188 110.414062 C 136.195312 110.574219 136.207031 110.742188 136.152344 110.910156 C 136.09375 111.078125 135.984375 111.203125 135.824219 111.28125 C 135.664062 111.363281 135.5 111.375 135.332031 111.316406 C 135.164062 111.257812 135.039062 111.152344 134.960938 110.992188 C 134.878906 110.832031 134.867188 110.667969 134.925781 110.496094 C 134.980469 110.328125 135.089844 110.203125 135.25 110.125 C 135.410156 110.042969 135.574219 110.035156 135.746094 110.089844 Z M 135.746094 110.089844 " fill-opacity="1" fill-rule="nonzero"/><path fill="#1f2f0d" d="M 143.636719 111.320312 C 143.664062 111.21875 143.765625 111.15625 143.867188 111.171875 L 144.261719 109.8125 L 143.664062 109.636719 L 143.511719 110.160156 L 143.835938 110.253906 L 143.378906 111.824219 L 143.492188 111.824219 Z M 143.636719 111.320312 " fill-opacity="1" fill-rule="nonzero"/><path fill="#1f2f0d" d="M 143.132812 110.140625 L 142.640625 111.824219 L 143.289062 111.824219 L 143.730469 110.316406 Z M 143.132812 110.140625 " fill-opacity="1" fill-rule="nonzero"/><path fill="#1f2f0d" d="M 144.65625 114.925781 C 144.605469 114.902344 144.5625 114.875 144.515625 114.84375 L 144.195312 114.84375 L 144.195312 114.957031 L 144.65625 114.957031 Z M 144.65625 114.925781 " fill-opacity="1" fill-rule="nonzero"/><path fill="#1f2f0d" d="M 144.3125 112.242188 L 144.3125 111.910156 L 143.898438 111.910156 L 143.773438 112.355469 L 144.539062 112.355469 L 144.539062 112.496094 C 144.578125 112.472656 144.617188 112.449219 144.65625 112.429688 L 144.65625 112.242188 Z M 144.3125 112.242188 " fill-opacity="1" fill-rule="nonzero"/><g clip-path="url(#dd0c0b5a94)"><path fill="#1f2f0d" d="M 138.726562 112.964844 L 138.058594 109.71875 C 138.042969 109.648438 138.054688 109.582031 138.09375 109.523438 C 138.132812 109.464844 138.191406 109.425781 138.257812 109.410156 L 141.144531 108.816406 C 141.160156 108.8125 141.179688 108.808594 141.195312 108.808594 C 141.246094 108.808594 141.296875 108.824219 141.335938 108.851562 C 141.394531 108.890625 141.433594 108.949219 141.449219 109.015625 L 142.4375 113.800781 L 142.554688 113.800781 L 142.257812 112.355469 L 143.339844 112.355469 L 143.46875 111.910156 L 142.585938 111.910156 L 142.585938 112.242188 L 142.234375 112.242188 L 141.5625 108.992188 C 141.519531 108.789062 141.320312 108.660156 141.121094 108.703125 L 138.234375 109.300781 C 138.136719 109.320312 138.054688 109.375 138 109.460938 C 137.945312 109.542969 137.925781 109.644531 137.945312 109.742188 L 138.609375 112.964844 Z M 138.726562 112.964844 " fill-opacity="1" fill-rule="nonzero"/></g><path fill="#1f2f0d" d="M 142.914062 114.179688 L 143.167969 114.179688 L 143.953125 111.410156 C 143.960938 111.378906 143.957031 111.347656 143.941406 111.316406 C 143.925781 111.289062 143.898438 111.269531 143.867188 111.261719 C 143.804688 111.242188 143.738281 111.28125 143.71875 111.34375 Z M 142.914062 114.179688 " fill-opacity="1" fill-rule="nonzero"/><path fill="#1f2f0d" d="M 139.558594 114.273438 L 140.582031 114.273438 L 140.582031 113.800781 L 140.902344 113.800781 C 140.925781 113.648438 141.011719 113.519531 141.128906 113.429688 L 141.128906 113.050781 L 138.449219 113.050781 L 138.449219 115.730469 L 139.558594 115.730469 Z M 139.558594 114.273438 " fill-opacity="1" fill-rule="nonzero"/><path fill="#1f2f0d" d="M 143.75 112.988281 L 143.386719 114.179688 L 143.582031 114.179688 L 143.929688 113.042969 C 143.945312 112.992188 143.917969 112.941406 143.867188 112.925781 C 143.816406 112.910156 143.765625 112.9375 143.75 112.988281 Z M 143.75 112.988281 " fill-opacity="1" fill-rule="nonzero"/><path fill="#1f2f0d" d="M 140.988281 113.800781 L 141.949219 113.800781 C 141.902344 113.574219 141.707031 113.40625 141.46875 113.40625 C 141.230469 113.40625 141.03125 113.574219 140.988281 113.800781 Z M 140.988281 113.800781 " fill-opacity="1" fill-rule="nonzero"/><path fill="#1f2f0d" d="M 140.066406 115.613281 C 140.066406 115.316406 140.292969 115.070312 140.582031 115.042969 L 140.582031 114.359375 L 139.644531 114.359375 L 139.644531 115.996094 L 140.210938 115.996094 C 140.121094 115.894531 140.066406 115.761719 140.066406 115.613281 Z M 140.066406 115.613281 " fill-opacity="1" fill-rule="nonzero"/><path fill="#1f2f0d" d="M 144.109375 114.40625 C 144.082031 114.359375 144.054688 114.3125 144.035156 114.265625 L 142.867188 114.265625 L 142.867188 114.734375 L 143.738281 114.734375 L 143.738281 115.996094 L 144.109375 115.996094 Z M 144.109375 114.40625 " fill-opacity="1" fill-rule="nonzero"/><path fill="#1f2f0d" d="M 142.867188 114.820312 L 143.652344 114.820312 L 143.652344 115.996094 L 142.867188 115.996094 Z M 142.867188 114.820312 " fill-opacity="1" fill-rule="nonzero"/><path fill="#1f2f0d" d="M 142.78125 113.886719 L 140.667969 113.886719 L 140.667969 115.042969 C 140.972656 115.058594 141.214844 115.308594 141.214844 115.613281 C 141.214844 115.761719 141.160156 115.894531 141.070312 115.996094 L 142.78125 115.996094 Z M 142.78125 113.886719 " fill-opacity="1" fill-rule="nonzero"/><g clip-path="url(#9feb7c50c0)"><path fill="#1f2f0d" d="M 140.640625 116.101562 C 140.910156 116.101562 141.128906 115.882812 141.128906 115.613281 C 141.128906 115.34375 140.910156 115.125 140.640625 115.125 C 140.371094 115.125 140.152344 115.34375 140.152344 115.613281 C 140.152344 115.882812 140.371094 116.101562 140.640625 116.101562 Z M 140.640625 116.101562 " fill-opacity="1" fill-rule="nonzero"/></g><path fill="#1f2f0d" d="M 139.492188 111.96875 L 139.566406 111.96875 L 139.566406 111.445312 L 139.925781 111.445312 L 139.925781 112.839844 L 140.066406 112.839844 L 140.066406 111.445312 L 140.882812 111.445312 L 140.652344 110.4375 C 140.625 110.316406 140.519531 110.230469 140.394531 110.230469 L 139.597656 110.230469 C 139.476562 110.230469 139.371094 110.316406 139.34375 110.4375 L 139.109375 111.445312 L 139.492188 111.445312 Z M 139.492188 111.96875 " fill-opacity="1" fill-rule="nonzero"/><path fill="#1f2f0d" d="M 144.632812 113.394531 C 144.730469 113.535156 144.867188 113.59375 144.972656 113.617188 C 145 113.449219 145.148438 113.320312 145.324219 113.320312 C 145.347656 113.320312 145.371094 113.320312 145.394531 113.328125 C 145.511719 113.167969 145.761719 113.105469 145.675781 112.925781 C 145.558594 112.679688 145.140625 112.695312 144.886719 112.785156 C 144.632812 112.878906 144.453125 113.136719 144.632812 113.394531 Z M 144.632812 113.394531 " fill-opacity="1" fill-rule="nonzero"/><path fill="#1f2f0d" d="M 145.445312 114.015625 C 145.40625 114.027344 145.367188 114.035156 145.324219 114.035156 C 145.160156 114.035156 145.019531 113.925781 144.980469 113.773438 C 144.800781 113.714844 144.65625 113.546875 144.535156 113.6875 C 144.355469 113.894531 144.539062 114.273438 144.730469 114.46875 C 144.914062 114.660156 145.226562 114.71875 145.386719 114.453125 C 145.488281 114.289062 145.472656 114.121094 145.445312 114.015625 Z M 145.445312 114.015625 " fill-opacity="1" fill-rule="nonzero"/><g clip-path="url(#7d169a8f80)"><path fill="#1f2f0d" d="M 145.554688 113.402344 C 145.632812 113.46875 145.683594 113.566406 145.683594 113.679688 C 145.683594 113.765625 145.652344 113.847656 145.597656 113.910156 C 145.730469 114.078125 145.664062 114.371094 145.878906 114.363281 C 146.152344 114.355469 146.304688 113.964844 146.320312 113.695312 C 146.335938 113.425781 146.167969 113.160156 145.863281 113.21875 C 145.71875 113.25 145.621094 113.328125 145.554688 113.402344 Z M 145.554688 113.402344 " fill-opacity="1" fill-rule="nonzero"/></g><path fill="#1f2f0d" d="M 145.324219 113.96875 C 145.484375 113.96875 145.613281 113.839844 145.613281 113.679688 C 145.613281 113.519531 145.484375 113.386719 145.324219 113.386719 C 145.164062 113.386719 145.035156 113.519531 145.035156 113.679688 C 145.035156 113.839844 145.164062 113.96875 145.324219 113.96875 Z M 145.324219 113.96875 " fill-opacity="1" fill-rule="nonzero"/><g clip-path="url(#4eb5c353fe)"><path fill="#1f2f0d" d="M 144.753906 116.46875 C 144.753906 116.347656 144.589844 116.320312 144.429688 116.289062 C 144.296875 116.265625 144.148438 116.238281 144.132812 116.164062 C 144.128906 116.140625 144.136719 116.117188 144.152344 116.101562 C 144.15625 116.09375 144.164062 116.085938 144.171875 116.082031 C 144.179688 116.078125 144.1875 116.070312 144.195312 116.066406 C 144.28125 116.023438 144.441406 116.007812 144.585938 116 L 144.585938 116.085938 L 146.0625 116.085938 L 146.0625 115.949219 C 146.0625 115.886719 146.011719 115.835938 145.949219 115.835938 L 145.527344 115.835938 L 145.464844 115.089844 L 145.453125 114.945312 C 146.097656 114.878906 146.597656 114.335938 146.597656 113.679688 C 146.597656 112.972656 146.027344 112.402344 145.324219 112.402344 C 144.621094 112.402344 144.050781 112.972656 144.050781 113.679688 C 144.050781 114.335938 144.550781 114.878906 145.195312 114.945312 L 145.183594 115.089844 L 145.121094 115.835938 L 144.699219 115.835938 C 144.636719 115.835938 144.589844 115.882812 144.585938 115.941406 C 144.433594 115.949219 144.289062 115.964844 144.195312 116.003906 C 144.15625 116.019531 144.128906 116.039062 144.105469 116.0625 C 144.101562 116.070312 144.097656 116.074219 144.09375 116.082031 C 144.078125 116.109375 144.070312 116.140625 144.078125 116.171875 C 144.097656 116.285156 144.261719 116.316406 144.417969 116.347656 C 144.554688 116.371094 144.699219 116.398438 144.699219 116.46875 C 144.699219 116.480469 144.695312 116.484375 144.691406 116.484375 C 144.652344 116.519531 144.484375 116.488281 144.320312 116.457031 C 144.140625 116.425781 143.925781 116.386719 143.726562 116.390625 C 143.648438 116.300781 143.457031 116.226562 143.164062 116.242188 C 142.824219 116.265625 142.796875 116.328125 142.789062 116.351562 C 142.78125 116.363281 142.777344 116.386719 142.800781 116.417969 C 142.871094 116.496094 143.191406 116.558594 143.492188 116.476562 C 143.558594 116.460938 143.625 116.453125 143.695312 116.449219 C 143.707031 116.472656 143.707031 116.496094 143.695312 116.515625 C 143.664062 116.574219 143.53125 116.632812 143.261719 116.625 C 142.910156 116.613281 142.703125 116.53125 142.519531 116.460938 C 142.359375 116.398438 142.203125 116.339844 141.980469 116.339844 C 141.960938 116.277344 141.898438 116.242188 141.835938 116.261719 L 141.671875 116.304688 L 141.6875 116.367188 L 141.585938 116.394531 C 141.574219 116.398438 141.566406 116.410156 141.570312 116.421875 C 141.570312 116.433594 141.585938 116.441406 141.597656 116.4375 L 141.699219 116.410156 L 141.71875 116.480469 L 141.613281 116.507812 C 141.601562 116.511719 141.597656 116.523438 141.597656 116.535156 C 141.601562 116.546875 141.613281 116.554688 141.628906 116.550781 L 141.730469 116.523438 L 141.75 116.585938 L 141.910156 116.539062 C 141.972656 116.523438 142.011719 116.460938 141.996094 116.394531 C 142.199219 116.398438 142.339844 116.453125 142.5 116.515625 C 142.6875 116.585938 142.898438 116.671875 143.261719 116.679688 C 143.277344 116.679688 143.292969 116.683594 143.3125 116.683594 C 143.539062 116.683594 143.695312 116.632812 143.746094 116.542969 C 143.765625 116.515625 143.769531 116.480469 143.757812 116.449219 C 143.945312 116.449219 144.140625 116.484375 144.3125 116.515625 C 144.527344 116.554688 144.667969 116.578125 144.726562 116.53125 C 144.746094 116.515625 144.753906 116.492188 144.753906 116.46875 Z M 144.199219 113.679688 C 144.199219 113.058594 144.703125 112.550781 145.324219 112.550781 C 145.945312 112.550781 146.449219 113.058594 146.449219 113.679688 C 146.449219 114.300781 145.945312 114.804688 145.324219 114.804688 C 144.703125 114.804688 144.199219 114.300781 144.199219 113.679688 Z M 143.480469 116.421875 C 143.226562 116.488281 142.949219 116.449219 142.859375 116.390625 C 142.84375 116.382812 142.839844 116.375 142.839844 116.371094 C 142.839844 116.371094 142.863281 116.320312 143.167969 116.300781 C 143.195312 116.300781 143.222656 116.296875 143.25 116.296875 C 143.4375 116.296875 143.574219 116.339844 143.644531 116.394531 C 143.589844 116.398438 143.53125 116.40625 143.480469 116.421875 Z M 143.480469 116.421875 " fill-opacity="1" fill-rule="nonzero"/></g></svg>