<svg width="75" height="75" viewBox="0 0 75 75" fill="none" xmlns="http://www.w3.org/2000/svg">
<path d="M58.5938 22.1602V11.7188C58.5938 10.4755 58.0999 9.28326 57.2208 8.40419C56.3417 7.52511 55.1495 7.03125 53.9062 7.03125H21.0938C19.8505 7.03125 18.6583 7.52511 17.7792 8.40419C16.9001 9.28326 16.4063 10.4755 16.4062 11.7188V22.2656C16.4084 22.9933 16.5791 23.7105 16.9049 24.3611C17.2307 25.0117 17.7028 25.578 18.2842 26.0156L33.5947 37.5L18.2813 48.9844C17.7003 49.4221 17.2286 49.9885 16.9033 50.6391C16.578 51.2898 16.4078 52.0069 16.4062 52.7344V63.2812C16.4063 64.5245 16.9001 65.7167 17.7792 66.5958C18.6583 67.4749 19.8505 67.9688 21.0938 67.9688H53.9062C55.1495 67.9688 56.3417 67.4749 57.2208 66.5958C58.0999 65.7167 58.5938 64.5245 58.5938 63.2812V52.8398C58.5938 52.1146 58.4255 51.3993 58.1022 50.7501C57.7788 50.1009 57.3093 49.5356 56.7305 49.0986L41.3848 37.5L56.7305 25.9014C57.3085 25.4636 57.7774 24.8982 58.1006 24.2492C58.4239 23.6002 58.5926 22.8852 58.5938 22.1602Z" fill="#1F2F0D"/>
</svg>
