<svg xmlns="http://www.w3.org/2000/svg" xmlns:xlink="http://www.w3.org/1999/xlink" width="203" zoomAndPan="magnify" viewBox="0 0 152.25 230.999993" height="308" preserveAspectRatio="xMidYMid meet" version="1.0"><defs><clipPath id="713e4a6fd2"><path d="M 0 1 L 150.757812 1 L 150.757812 229.6875 L 0 229.6875 Z M 0 1 " clip-rule="nonzero"/></clipPath><clipPath id="56a57034b7"><path d="M 71.570312 207.117188 L 79.78125 207.117188 L 79.78125 219.058594 L 71.570312 219.058594 Z M 71.570312 207.117188 " clip-rule="nonzero"/></clipPath></defs><g clip-path="url(#713e4a6fd2)"><path fill="#1f2f0d" d="M 75.253906 1.019531 C 73.519531 1.019531 72.117188 2.421875 72.117188 4.152344 L 72.117188 23.679688 C 72.117188 25.410156 73.515625 26.8125 75.253906 26.8125 C 76.992188 26.8125 78.386719 25.410156 78.386719 23.679688 L 78.386719 4.152344 C 78.386719 2.421875 76.988281 1.019531 75.253906 1.019531 Z M 47.902344 6.261719 C 47.492188 6.257812 47.085938 6.339844 46.6875 6.503906 C 45.078125 7.160156 44.316406 8.976562 44.976562 10.578125 L 49.253906 21.0625 C 49.90625 22.671875 51.734375 23.433594 53.335938 22.773438 C 54.941406 22.117188 55.707031 20.292969 55.050781 18.691406 L 50.773438 8.21875 C 50.28125 7.015625 49.128906 6.273438 47.902344 6.261719 Z M 103.253906 6.527344 C 102.03125 6.527344 100.882812 7.253906 100.371094 8.453125 L 95.992188 18.882812 C 95.324219 20.480469 96.066406 22.320312 97.664062 22.988281 C 99.261719 23.65625 101.097656 22.90625 101.769531 21.308594 L 106.148438 10.863281 C 106.816406 9.265625 106.066406 7.4375 104.46875 6.769531 C 104.066406 6.597656 103.65625 6.527344 103.253906 6.527344 Z M 24.277344 22.0625 C 23.480469 22.0625 22.683594 22.367188 22.066406 22.976562 C 20.835938 24.203125 20.832031 26.179688 22.058594 27.410156 L 35.820312 41.246094 C 37.046875 42.476562 39.023438 42.480469 40.253906 41.257812 C 41.484375 40.03125 41.488281 38.054688 40.261719 36.824219 L 26.5 22.988281 C 25.886719 22.371094 25.078125 22.0625 24.277344 22.0625 Z M 126.492188 22.308594 C 125.695312 22.308594 124.890625 22.621094 124.273438 23.230469 L 110.433594 36.996094 C 109.210938 38.21875 109.199219 40.199219 110.425781 41.429688 C 111.648438 42.65625 113.628906 42.664062 114.855469 41.4375 L 128.695312 27.675781 C 129.917969 26.449219 129.929688 24.472656 128.703125 23.242188 C 128.097656 22.625 127.292969 22.308594 126.492188 22.308594 Z M 8.476562 45.285156 C 7.253906 45.285156 6.097656 46.011719 5.59375 47.210938 C 4.925781 48.808594 5.667969 50.632812 7.265625 51.304688 L 17.707031 55.683594 C 19.304688 56.355469 21.132812 55.613281 21.800781 54.011719 C 22.472656 52.414062 21.730469 50.578125 20.132812 49.90625 L 9.691406 45.527344 C 9.289062 45.363281 8.878906 45.285156 8.476562 45.285156 Z M 142.316406 45.910156 C 141.914062 45.90625 141.503906 45.980469 141.101562 46.144531 L 130.617188 50.421875 C 129.011719 51.074219 128.246094 52.902344 128.90625 54.507812 C 129.566406 56.109375 131.386719 56.878906 132.992188 56.21875 L 143.464844 51.941406 C 145.074219 51.289062 145.835938 49.460938 145.175781 47.859375 C 144.683594 46.652344 143.535156 45.925781 142.316406 45.910156 Z M 75.820312 46.015625 C 74.058594 45.925781 72.234375 46.214844 70.578125 46.960938 C 69.726562 47.34375 68.980469 47.882812 68.277344 48.492188 C 67.457031 48.609375 66.660156 48.824219 65.925781 49.203125 C 64.285156 50.039062 63.019531 51.449219 62.277344 53.09375 C 61.417969 55.007812 61.292969 57.042969 61.265625 58.933594 C 61.234375 60.371094 61.261719 61.824219 61.320312 63.261719 C 61.242188 63.308594 61.167969 63.351562 61.09375 63.414062 C 60.800781 63.644531 60.285156 64.070312 59.988281 64.78125 C 59.71875 65.425781 59.75 66.011719 59.765625 66.3125 C 59.789062 67.015625 59.84375 67.71875 59.949219 68.421875 C 60.160156 69.875 60.585938 71.507812 61.703125 72.878906 C 62.039062 73.300781 62.453125 73.617188 62.847656 73.910156 C 63.21875 75.207031 63.695312 76.527344 64.488281 77.761719 C 66.03125 80.140625 68.382812 81.867188 71.019531 82.738281 C 72.316406 83.171875 73.675781 83.402344 75.050781 83.410156 C 75.050781 83.410156 75.054688 83.410156 75.054688 83.410156 L 75.066406 83.410156 C 75.066406 83.410156 75.070312 83.410156 75.070312 83.410156 C 76.445312 83.402344 77.8125 83.171875 79.109375 82.738281 C 81.746094 81.867188 84.097656 80.140625 85.636719 77.761719 C 86.390625 76.613281 86.835938 75.394531 87.210938 74.191406 C 87.785156 73.832031 88.359375 73.429688 88.8125 72.875 C 89.929688 71.496094 90.34375 69.863281 90.558594 68.414062 C 90.660156 67.710938 90.71875 67.007812 90.75 66.308594 C 90.761719 66.011719 90.792969 65.421875 90.515625 64.777344 C 90.222656 64.066406 89.71875 63.640625 89.421875 63.40625 C 89.40625 63.398438 89.390625 63.390625 89.371094 63.375 C 89.410156 63.074219 89.457031 62.773438 89.488281 62.472656 C 89.671875 60.753906 89.742188 58.996094 89.480469 57.21875 C 89.207031 55.445312 88.628906 53.679688 87.59375 52.140625 C 85.96875 49.714844 83.453125 48.128906 80.863281 47.132812 C 79.269531 46.519531 77.582031 46.105469 75.824219 46.015625 Z M 33.734375 54.113281 C 31.992188 54.195312 30.277344 54.941406 29.011719 56.332031 L 28.992188 56.34375 C 26.828125 58.734375 26.632812 62.328125 28.535156 64.9375 C 34.449219 73.523438 41.367188 81.394531 49.164062 88.324219 C 52.449219 91.246094 55.925781 93.945312 59.492188 96.511719 L 59.492188 126.769531 C 59.492188 126.941406 59.53125 127.097656 59.542969 127.269531 C 57.863281 134.660156 56.386719 142.089844 55.152344 149.578125 C 53.351562 160.5 52.074219 171.507812 51.238281 182.535156 C 51.230469 182.609375 51.238281 182.695312 51.230469 182.769531 C 51.175781 183.214844 51.175781 183.644531 51.199219 184.078125 C 49.578125 184.402344 47.96875 184.757812 46.402344 185.160156 C 44.992188 185.53125 43.742188 186.359375 42.851562 187.523438 C 39.925781 191.332031 36.730469 194.914062 33.261719 198.207031 C 28.707031 202.546875 23.664062 206.429688 18.300781 209.765625 C 16.382812 210.960938 15.214844 213.0625 15.214844 215.320312 L 15.214844 222.828125 C 15.214844 226.445312 18.148438 229.378906 21.765625 229.378906 L 128.726562 229.378906 C 132.34375 229.378906 135.273438 226.453125 135.273438 222.828125 L 135.273438 215.320312 C 135.273438 213.058594 134.105469 210.960938 132.191406 209.765625 C 126.832031 206.429688 121.789062 202.546875 117.230469 198.207031 C 113.761719 194.914062 110.570312 191.335938 107.636719 187.523438 C 106.75 186.359375 105.503906 185.53125 104.089844 185.160156 C 102.515625 184.757812 100.917969 184.402344 99.292969 184.078125 C 99.3125 183.644531 99.3125 183.214844 99.261719 182.769531 C 99.25 182.695312 99.261719 182.609375 99.25 182.535156 C 98.414062 171.507812 97.144531 160.5 95.339844 149.578125 C 94.101562 142.097656 92.632812 134.660156 90.949219 127.269531 C 90.957031 127.101562 91 126.941406 91 126.769531 L 91 96.511719 C 94.570312 93.945312 98.042969 91.246094 101.328125 88.324219 C 109.121094 81.394531 116.035156 73.523438 121.957031 64.9375 C 123.851562 62.328125 123.664062 58.734375 121.5 56.34375 L 121.480469 56.332031 C 118.945312 53.550781 114.632812 53.347656 111.851562 55.886719 C 111.4375 56.265625 111.058594 56.679688 110.746094 57.152344 C 105.449219 64.84375 99.25 71.917969 92.265625 78.125 C 89.339844 80.726562 86.230469 83.117188 83.054688 85.402344 C 82.726562 85.367188 82.398438 85.308594 82.0625 85.308594 L 68.417969 85.308594 C 68.082031 85.308594 67.753906 85.367188 67.425781 85.402344 C 64.25 83.117188 61.140625 80.726562 58.214844 78.125 C 51.234375 71.917969 45.03125 64.84375 39.734375 57.152344 C 39.421875 56.679688 39.042969 56.265625 38.628906 55.886719 C 37.246094 54.621094 35.476562 54.035156 33.734375 54.113281 Z M 2.980469 73.292969 C 1.246094 73.292969 -0.15625 74.695312 -0.15625 76.429688 C -0.15625 78.160156 1.242188 79.5625 2.980469 79.5625 L 22.503906 79.5625 C 24.238281 79.5625 25.636719 78.160156 25.636719 76.429688 C 25.636719 74.695312 24.242188 73.292969 22.503906 73.292969 Z M 128.003906 73.292969 C 126.269531 73.292969 124.867188 74.695312 124.867188 76.429688 C 124.867188 78.160156 126.269531 79.5625 128.003906 79.5625 L 147.527344 79.5625 C 149.261719 79.5625 150.664062 78.160156 150.664062 76.429688 C 150.664062 74.695312 149.261719 73.292969 147.527344 73.292969 Z M 18.742188 96.394531 C 18.332031 96.390625 17.914062 96.460938 17.515625 96.628906 L 7.042969 100.902344 C 5.433594 101.558594 4.671875 103.382812 5.328125 104.988281 C 5.988281 106.59375 7.800781 107.359375 9.402344 106.699219 L 19.886719 102.425781 C 21.496094 101.769531 22.257812 99.945312 21.601562 98.339844 C 21.105469 97.136719 19.964844 96.402344 18.742188 96.394531 Z M 131.574219 96.921875 C 130.355469 96.921875 129.210938 97.648438 128.703125 98.847656 C 128.035156 100.445312 128.777344 102.273438 130.375 102.945312 L 140.816406 107.324219 C 142.421875 107.992188 144.242188 107.242188 144.910156 105.640625 C 145.582031 104.042969 144.839844 102.21875 143.242188 101.546875 L 132.796875 97.167969 C 132.398438 96.996094 131.980469 96.921875 131.574219 96.921875 Z M 37.871094 110.503906 C 37.070312 110.503906 36.265625 110.804688 35.648438 111.417969 L 21.8125 125.183594 C 20.582031 126.40625 20.578125 128.382812 21.800781 129.613281 C 23.027344 130.84375 25.003906 130.847656 26.234375 129.625 L 40.070312 115.859375 C 41.300781 114.636719 41.304688 112.660156 40.082031 111.429688 C 39.46875 110.8125 38.667969 110.503906 37.871094 110.503906 Z M 112.476562 110.6875 C 111.675781 110.6875 110.871094 110.988281 110.253906 111.601562 C 109.027344 112.824219 109.019531 114.800781 110.242188 116.03125 L 124.007812 129.867188 C 125.230469 131.09375 127.210938 131.105469 128.4375 129.878906 C 129.667969 128.652344 129.675781 126.675781 128.449219 125.445312 L 114.6875 111.609375 C 114.074219 110.992188 113.273438 110.6875 112.476562 110.6875 Z M 73.246094 135.710938 L 77.257812 135.710938 C 78.414062 141.140625 79.5 146.589844 80.394531 152.058594 C 82.046875 162.078125 83.242188 172.15625 84.046875 182.277344 C 83.070312 182.238281 82.105469 182.167969 81.125 182.167969 C 81.113281 182.167969 81.09375 182.167969 81.082031 182.167969 L 81.070312 182.167969 C 80.890625 182.167969 80.714844 182.167969 80.527344 182.167969 L 69.964844 182.167969 C 69.777344 182.167969 69.601562 182.167969 69.417969 182.167969 L 69.410156 182.167969 C 69.398438 182.167969 69.382812 182.167969 69.367188 182.167969 C 68.390625 182.171875 67.421875 182.246094 66.445312 182.277344 C 67.25 172.15625 68.445312 162.070312 70.09375 152.058594 C 71.007812 146.589844 72.085938 141.140625 73.246094 135.710938 Z M 73.246094 135.710938 " fill-opacity="1" fill-rule="nonzero"/></g><g clip-path="url(#56a57034b7)"><path fill="#1f2f0d" d="M 75.5 207.148438 C 75.410156 207.148438 75.335938 207.21875 75.335938 207.3125 L 75.335938 208.332031 C 75.335938 208.421875 75.410156 208.492188 75.5 208.492188 C 75.589844 208.492188 75.664062 208.421875 75.664062 208.332031 L 75.664062 207.3125 C 75.664062 207.21875 75.589844 207.148438 75.5 207.148438 Z M 74.070312 207.421875 C 74.050781 207.421875 74.027344 207.425781 74.007812 207.433594 C 73.925781 207.46875 73.882812 207.5625 73.917969 207.644531 L 74.140625 208.195312 C 74.175781 208.277344 74.273438 208.316406 74.355469 208.28125 C 74.4375 208.25 74.480469 208.152344 74.445312 208.070312 L 74.222656 207.523438 C 74.195312 207.460938 74.136719 207.421875 74.070312 207.421875 Z M 76.960938 207.433594 C 76.898438 207.433594 76.835938 207.472656 76.808594 207.535156 L 76.582031 208.078125 C 76.546875 208.164062 76.585938 208.257812 76.667969 208.292969 C 76.753906 208.328125 76.847656 208.289062 76.882812 208.207031 L 77.113281 207.660156 C 77.148438 207.578125 77.109375 207.484375 77.023438 207.449219 C 77.003906 207.4375 76.980469 207.433594 76.960938 207.433594 Z M 72.839844 208.246094 C 72.796875 208.246094 72.753906 208.261719 72.722656 208.292969 C 72.660156 208.359375 72.660156 208.460938 72.722656 208.523438 L 73.441406 209.246094 C 73.503906 209.3125 73.609375 209.3125 73.671875 209.246094 C 73.738281 209.183594 73.738281 209.082031 73.671875 209.015625 L 72.953125 208.292969 C 72.921875 208.261719 72.878906 208.246094 72.839844 208.246094 Z M 78.171875 208.257812 C 78.132812 208.257812 78.089844 208.273438 78.058594 208.308594 L 77.335938 209.023438 C 77.273438 209.089844 77.269531 209.191406 77.335938 209.257812 C 77.398438 209.320312 77.503906 209.320312 77.566406 209.257812 L 78.289062 208.539062 C 78.351562 208.476562 78.351562 208.371094 78.289062 208.308594 C 78.257812 208.273438 78.214844 208.257812 78.171875 208.257812 Z M 72.011719 209.457031 C 71.949219 209.457031 71.890625 209.496094 71.863281 209.558594 C 71.828125 209.640625 71.867188 209.738281 71.949219 209.773438 L 72.496094 210 C 72.578125 210.035156 72.675781 209.996094 72.710938 209.914062 C 72.746094 209.832031 72.707031 209.734375 72.621094 209.699219 L 72.078125 209.46875 C 72.054688 209.460938 72.035156 209.457031 72.011719 209.457031 Z M 79 209.492188 C 78.980469 209.492188 78.957031 209.496094 78.9375 209.503906 L 78.390625 209.726562 C 78.304688 209.761719 78.265625 209.855469 78.300781 209.9375 C 78.335938 210.023438 78.429688 210.0625 78.511719 210.027344 L 79.058594 209.804688 C 79.144531 209.769531 79.183594 209.675781 79.148438 209.59375 C 79.125 209.53125 79.0625 209.492188 79 209.492188 Z M 75.527344 209.496094 C 75.4375 209.492188 75.339844 209.507812 75.253906 209.546875 C 75.210938 209.566406 75.171875 209.59375 75.136719 209.625 C 75.09375 209.632812 75.050781 209.644531 75.011719 209.664062 C 74.925781 209.707031 74.859375 209.78125 74.820312 209.867188 C 74.777344 209.964844 74.769531 210.070312 74.769531 210.171875 C 74.765625 210.246094 74.769531 210.320312 74.773438 210.394531 C 74.769531 210.398438 74.765625 210.402344 74.761719 210.402344 C 74.746094 210.417969 74.71875 210.4375 74.703125 210.476562 C 74.6875 210.507812 74.691406 210.539062 74.691406 210.554688 C 74.691406 210.59375 74.695312 210.628906 74.699219 210.664062 C 74.710938 210.742188 74.734375 210.828125 74.792969 210.898438 C 74.808594 210.921875 74.832031 210.9375 74.851562 210.953125 C 74.871094 211.019531 74.894531 211.089844 74.9375 211.152344 C 75.019531 211.277344 75.140625 211.367188 75.277344 211.414062 C 75.347656 211.433594 75.417969 211.449219 75.488281 211.449219 C 75.5625 211.449219 75.632812 211.433594 75.699219 211.414062 C 75.839844 211.367188 75.960938 211.277344 76.042969 211.152344 C 76.082031 211.09375 76.105469 211.03125 76.125 210.964844 C 76.152344 210.949219 76.183594 210.925781 76.207031 210.898438 C 76.265625 210.828125 76.285156 210.742188 76.296875 210.664062 C 76.304688 210.628906 76.304688 210.59375 76.308594 210.554688 C 76.308594 210.539062 76.308594 210.507812 76.296875 210.476562 C 76.28125 210.4375 76.253906 210.417969 76.238281 210.402344 C 76.238281 210.402344 76.238281 210.402344 76.234375 210.402344 C 76.238281 210.386719 76.242188 210.371094 76.242188 210.355469 C 76.25 210.265625 76.253906 210.171875 76.242188 210.082031 C 76.226562 209.988281 76.199219 209.894531 76.144531 209.816406 C 76.058594 209.6875 75.925781 209.605469 75.792969 209.554688 C 75.707031 209.523438 75.621094 209.5 75.527344 209.496094 Z M 73.332031 209.917969 C 73.242188 209.921875 73.152344 209.960938 73.085938 210.035156 C 72.972656 210.160156 72.960938 210.347656 73.0625 210.484375 C 73.371094 210.933594 73.730469 211.34375 74.136719 211.703125 C 74.308594 211.855469 74.492188 211.996094 74.675781 212.132812 L 74.675781 213.710938 C 74.675781 213.71875 74.679688 213.726562 74.679688 213.738281 C 74.589844 214.121094 74.515625 214.511719 74.449219 214.902344 C 74.355469 215.472656 74.289062 216.046875 74.246094 216.621094 C 74.246094 216.625 74.246094 216.628906 74.246094 216.632812 C 74.242188 216.65625 74.242188 216.679688 74.242188 216.703125 C 74.160156 216.71875 74.074219 216.738281 73.992188 216.757812 C 73.917969 216.777344 73.855469 216.820312 73.808594 216.882812 C 73.65625 217.082031 73.488281 217.269531 73.308594 217.441406 C 73.070312 217.667969 72.804688 217.871094 72.527344 218.042969 C 72.425781 218.105469 72.367188 218.214844 72.367188 218.332031 L 72.367188 218.726562 C 72.367188 218.914062 72.519531 219.066406 72.707031 219.066406 L 78.289062 219.066406 C 78.480469 219.066406 78.632812 218.914062 78.632812 218.726562 L 78.632812 218.332031 C 78.632812 218.214844 78.570312 218.105469 78.472656 218.042969 C 78.191406 217.871094 77.929688 217.667969 77.691406 217.441406 C 77.507812 217.269531 77.34375 217.082031 77.191406 216.882812 C 77.144531 216.820312 77.078125 216.777344 77.003906 216.757812 C 76.921875 216.738281 76.839844 216.71875 76.753906 216.703125 C 76.753906 216.679688 76.753906 216.65625 76.753906 216.632812 C 76.75 216.628906 76.753906 216.625 76.75 216.621094 C 76.707031 216.046875 76.640625 215.472656 76.546875 214.902344 C 76.484375 214.511719 76.40625 214.121094 76.320312 213.738281 C 76.320312 213.730469 76.320312 213.71875 76.320312 213.710938 L 76.320312 212.132812 C 76.507812 211.996094 76.6875 211.855469 76.859375 211.703125 C 77.265625 211.34375 77.628906 210.933594 77.9375 210.484375 C 78.035156 210.347656 78.027344 210.160156 77.914062 210.035156 L 77.910156 210.035156 C 77.78125 209.890625 77.554688 209.878906 77.410156 210.011719 C 77.386719 210.03125 77.367188 210.054688 77.351562 210.078125 C 77.074219 210.480469 76.75 210.847656 76.386719 211.171875 C 76.234375 211.308594 76.070312 211.433594 75.90625 211.550781 C 75.890625 211.550781 75.871094 211.546875 75.855469 211.546875 L 75.140625 211.546875 C 75.125 211.546875 75.109375 211.550781 75.089844 211.550781 C 74.925781 211.433594 74.761719 211.308594 74.609375 211.171875 C 74.246094 210.847656 73.921875 210.480469 73.644531 210.078125 C 73.628906 210.054688 73.609375 210.03125 73.585938 210.011719 C 73.515625 209.945312 73.421875 209.914062 73.332031 209.917969 Z M 71.726562 210.917969 C 71.636719 210.917969 71.5625 210.992188 71.5625 211.082031 C 71.5625 211.175781 71.636719 211.246094 71.726562 211.246094 L 72.746094 211.246094 C 72.835938 211.246094 72.910156 211.175781 72.910156 211.082031 C 72.910156 210.992188 72.835938 210.917969 72.746094 210.917969 Z M 78.253906 210.917969 C 78.160156 210.917969 78.089844 210.992188 78.089844 211.082031 C 78.089844 211.175781 78.160156 211.246094 78.253906 211.246094 L 79.273438 211.246094 C 79.363281 211.246094 79.433594 211.175781 79.433594 211.082031 C 79.433594 210.992188 79.363281 210.917969 79.273438 210.917969 Z M 72.550781 212.125 C 72.527344 212.125 72.507812 212.128906 72.484375 212.136719 L 71.9375 212.359375 C 71.855469 212.394531 71.816406 212.492188 71.847656 212.574219 C 71.882812 212.65625 71.976562 212.699219 72.0625 212.664062 L 72.609375 212.441406 C 72.691406 212.40625 72.734375 212.3125 72.699219 212.226562 C 72.671875 212.164062 72.613281 212.125 72.550781 212.125 Z M 78.4375 212.152344 C 78.375 212.152344 78.316406 212.191406 78.289062 212.253906 C 78.253906 212.335938 78.292969 212.433594 78.375 212.46875 L 78.921875 212.695312 C 79.003906 212.730469 79.101562 212.691406 79.136719 212.609375 C 79.171875 212.523438 79.132812 212.429688 79.046875 212.394531 L 78.503906 212.167969 C 78.480469 212.15625 78.460938 212.152344 78.4375 212.152344 Z M 73.546875 212.863281 C 73.507812 212.863281 73.464844 212.878906 73.433594 212.910156 L 72.710938 213.628906 C 72.644531 213.691406 72.644531 213.796875 72.710938 213.859375 C 72.773438 213.925781 72.875 213.925781 72.941406 213.859375 L 73.664062 213.140625 C 73.726562 213.078125 73.726562 212.976562 73.664062 212.910156 C 73.632812 212.878906 73.589844 212.863281 73.546875 212.863281 Z M 77.441406 212.871094 C 77.398438 212.871094 77.359375 212.886719 77.324219 212.917969 C 77.261719 212.984375 77.261719 213.085938 77.324219 213.152344 L 78.042969 213.871094 C 78.109375 213.9375 78.210938 213.9375 78.273438 213.875 C 78.339844 213.808594 78.339844 213.707031 78.277344 213.640625 L 77.558594 212.921875 C 77.527344 212.886719 77.484375 212.871094 77.441406 212.871094 Z M 75.394531 214.179688 L 75.605469 214.179688 C 75.664062 214.460938 75.722656 214.746094 75.769531 215.03125 C 75.855469 215.554688 75.917969 216.082031 75.957031 216.609375 C 75.90625 216.605469 75.855469 216.601562 75.804688 216.601562 C 75.792969 216.601562 75.785156 216.601562 75.773438 216.601562 L 75.222656 216.601562 C 75.214844 216.601562 75.203125 216.601562 75.195312 216.601562 C 75.195312 216.601562 75.191406 216.601562 75.191406 216.601562 C 75.140625 216.601562 75.089844 216.605469 75.039062 216.609375 C 75.082031 216.082031 75.144531 215.554688 75.230469 215.03125 C 75.277344 214.746094 75.332031 214.460938 75.394531 214.179688 Z M 75.394531 214.179688 " fill-opacity="1" fill-rule="nonzero"/></g></svg>