<svg xmlns="http://www.w3.org/2000/svg" xmlns:xlink="http://www.w3.org/1999/xlink" width="166" zoomAndPan="magnify" viewBox="0 0 124.5 107.249998" height="143" preserveAspectRatio="xMidYMid meet" version="1.0"><defs><clipPath id="5726de3f1e"><path d="M 0.183594 34 L 123.074219 34 L 123.074219 105.761719 L 0.183594 105.761719 Z M 0.183594 34 " clip-rule="nonzero"/></clipPath><clipPath id="43862f2107"><path d="M 32.125 36 L 46.277344 36 L 46.277344 44.777344 L 32.125 44.777344 Z M 32.125 36 " clip-rule="nonzero"/></clipPath><clipPath id="d1e02933de"><path d="M 36 32.859375 L 38 32.859375 L 38 35 L 36 35 Z M 36 32.859375 " clip-rule="nonzero"/></clipPath></defs><g clip-path="url(#5726de3f1e)"><path fill="#1f2f0d" d="M 205.394531 34.191406 L 166.503906 34.191406 C 164.707031 34.191406 163.25 35.648438 163.25 37.449219 L 163.25 52.25 L 127.242188 52.25 C 125.445312 52.25 123.988281 53.707031 123.988281 55.507812 L 123.988281 68.382812 L 86.539062 68.382812 C 84.742188 68.382812 83.28125 69.839844 83.28125 71.640625 L 83.28125 83.035156 L 47.464844 83.035156 C 45.664062 83.035156 44.207031 84.492188 44.207031 86.292969 L 44.207031 99.316406 L 3.503906 99.316406 C 1.703125 99.316406 0.246094 100.777344 0.246094 102.574219 C 0.246094 104.371094 1.703125 105.832031 3.503906 105.832031 L 47.464844 105.832031 C 49.261719 105.832031 50.71875 104.371094 50.71875 102.574219 L 50.71875 89.546875 L 86.539062 89.546875 C 88.335938 89.546875 89.796875 88.089844 89.796875 86.292969 L 89.796875 74.894531 L 127.242188 74.894531 C 129.042969 74.894531 130.5 73.4375 130.5 71.640625 L 130.5 58.761719 L 166.503906 58.761719 C 168.304688 58.761719 169.761719 57.304688 169.761719 55.507812 L 169.761719 40.703125 L 205.394531 40.703125 C 207.191406 40.703125 208.652344 39.246094 208.652344 37.449219 C 208.652344 35.648438 207.191406 34.191406 205.394531 34.191406 Z M 205.394531 34.191406 " fill-opacity="1" fill-rule="nonzero"/></g><path fill="#1f2f0d" d="M 37.980469 14.652344 C 35.765625 14.652344 34.386719 16.371094 33.949219 16.855469 C 33.949219 16.855469 25.246094 26.3125 25.152344 26.417969 C 24.601562 27.015625 24.222656 27.601562 23.925781 28.367188 L 20.011719 38.480469 C 19.355469 40.179688 20.167969 42.105469 21.832031 42.78125 C 22.226562 42.9375 22.628906 43.011719 23.027344 43.011719 C 24.316406 43.011719 25.535156 42.21875 26.039062 40.917969 L 29.921875 30.882812 L 32.332031 28.203125 C 32.289062 28.425781 32.246094 28.648438 32.207031 28.871094 C 32.207031 28.871094 30.316406 41.90625 31.449219 50.742188 C 31.449219 50.742188 32.421875 56.710938 31.558594 59.914062 C 31.558594 59.914062 28.550781 76.746094 27.675781 80.46875 C 27.3125 81.992188 27.46875 83.847656 28.519531 85.015625 C 29.320312 85.90625 30.320312 86.292969 31.308594 86.292969 C 33.074219 86.292969 34.792969 85.046875 35.207031 83.183594 L 40.414062 61.128906 L 40.953125 59.140625 C 40.953125 59.140625 41.445312 56.238281 41.039062 54.625 L 40.566406 50.058594 C 40.566406 50.058594 40.429688 49.660156 40.71875 49.445312 C 40.769531 49.40625 40.835938 49.390625 40.898438 49.390625 C 41.101562 49.390625 41.316406 49.539062 41.316406 49.539062 L 48.632812 52.675781 C 48.632812 52.675781 49.320312 53.589844 49.242188 55.328125 C 49.242188 55.328125 49.15625 63.5625 49.160156 63.628906 C 49.191406 65.5625 49.257812 67.921875 51.175781 68.929688 C 52.65625 69.707031 54.757812 69.46875 55.914062 68.191406 C 56.707031 67.316406 57.125 66.1875 57.136719 64.996094 L 57.796875 53.027344 C 57.929688 50.917969 58.308594 49.160156 56.042969 47.878906 C 56.042969 47.878906 47.957031 43.171875 47.925781 43.15625 C 46.171875 42.417969 46.496094 40.933594 46.523438 39.292969 C 46.539062 38.527344 46.574219 37.761719 46.601562 36.996094 C 46.609375 36.808594 46.628906 36.640625 46.625 36.457031 C 46.625 36.457031 46.609375 35.796875 47.429688 35.796875 C 47.445312 35.796875 47.464844 35.796875 47.488281 35.796875 C 49.835938 35.796875 56.335938 35.847656 56.367188 35.847656 C 59.585938 35.847656 60.085938 29.339844 55.488281 29.339844 C 55.457031 29.339844 55.429688 29.339844 55.394531 29.339844 C 55.394531 29.339844 47.140625 29.039062 47.109375 29.039062 C 46.609375 29.011719 46.59375 28.539062 46.578125 28.03125 C 46.515625 25.734375 46.375 23.957031 45.828125 21.6875 C 45.371094 19.769531 44.507812 17.976562 42.914062 16.777344 C 41.6875 15.859375 40.332031 15.121094 38.847656 14.75 C 38.542969 14.671875 37.980469 14.652344 37.980469 14.652344 Z M 37.980469 14.652344 " fill-opacity="1" fill-rule="nonzero"/><path fill="#1f2f0d" d="M 45.835938 5.699219 C 45.835938 6.074219 45.804688 6.441406 45.742188 6.808594 C 45.679688 7.175781 45.585938 7.535156 45.464844 7.878906 C 45.339844 8.226562 45.191406 8.554688 45.011719 8.863281 C 44.835938 9.175781 44.632812 9.464844 44.40625 9.726562 C 44.179688 9.992188 43.929688 10.230469 43.664062 10.4375 C 43.398438 10.644531 43.117188 10.820312 42.820312 10.964844 C 42.523438 11.105469 42.21875 11.214844 41.902344 11.289062 C 41.589844 11.359375 41.273438 11.398438 40.949219 11.398438 C 40.628906 11.398438 40.3125 11.359375 39.996094 11.289062 C 39.683594 11.214844 39.378906 11.105469 39.082031 10.964844 C 38.785156 10.820312 38.503906 10.644531 38.238281 10.4375 C 37.96875 10.230469 37.722656 9.992188 37.496094 9.726562 C 37.269531 9.464844 37.066406 9.175781 36.890625 8.863281 C 36.710938 8.554688 36.5625 8.226562 36.4375 7.878906 C 36.316406 7.535156 36.222656 7.175781 36.160156 6.808594 C 36.097656 6.441406 36.066406 6.074219 36.066406 5.699219 C 36.066406 5.324219 36.097656 4.953125 36.160156 4.585938 C 36.222656 4.21875 36.316406 3.863281 36.4375 3.519531 C 36.5625 3.171875 36.710938 2.84375 36.890625 2.53125 C 37.066406 2.222656 37.269531 1.933594 37.496094 1.667969 C 37.722656 1.40625 37.96875 1.167969 38.238281 0.960938 C 38.503906 0.753906 38.785156 0.578125 39.082031 0.433594 C 39.378906 0.289062 39.683594 0.183594 39.996094 0.109375 C 40.3125 0.0351562 40.628906 0 40.949219 0 C 41.273438 0 41.589844 0.0351562 41.902344 0.109375 C 42.21875 0.183594 42.523438 0.289062 42.820312 0.433594 C 43.117188 0.578125 43.398438 0.753906 43.664062 0.960938 C 43.929688 1.167969 44.179688 1.40625 44.40625 1.667969 C 44.632812 1.933594 44.835938 2.222656 45.011719 2.53125 C 45.191406 2.84375 45.339844 3.171875 45.464844 3.519531 C 45.585938 3.863281 45.679688 4.21875 45.742188 4.585938 C 45.804688 4.953125 45.835938 5.324219 45.835938 5.699219 Z M 45.835938 5.699219 " fill-opacity="1" fill-rule="nonzero"/><g clip-path="url(#43862f2107)"><path fill="#1f2f0d" d="M 55.230469 36.710938 L 50.851562 36.710938 C 50.648438 36.710938 50.484375 36.875 50.484375 37.078125 L 50.484375 38.742188 L 46.429688 38.742188 C 46.226562 38.742188 46.0625 38.90625 46.0625 39.109375 L 46.0625 40.558594 L 41.847656 40.558594 C 41.644531 40.558594 41.480469 40.722656 41.480469 40.925781 L 41.480469 42.210938 L 37.445312 42.210938 C 37.242188 42.210938 37.078125 42.375 37.078125 42.578125 L 37.078125 44.042969 L 32.496094 44.042969 C 32.292969 44.042969 32.128906 44.207031 32.128906 44.410156 C 32.128906 44.613281 32.292969 44.777344 32.496094 44.777344 L 37.445312 44.777344 C 37.648438 44.777344 37.8125 44.613281 37.8125 44.410156 L 37.8125 42.941406 L 41.847656 42.941406 C 42.046875 42.941406 42.214844 42.777344 42.214844 42.578125 L 42.214844 41.292969 L 46.429688 41.292969 C 46.632812 41.292969 46.796875 41.128906 46.796875 40.925781 L 46.796875 39.476562 L 50.851562 39.476562 C 51.054688 39.476562 51.21875 39.3125 51.21875 39.109375 L 51.21875 37.441406 L 55.230469 37.441406 C 55.433594 37.441406 55.597656 37.277344 55.597656 37.078125 C 55.597656 36.875 55.433594 36.710938 55.230469 36.710938 Z M 55.230469 36.710938 " fill-opacity="1" fill-rule="nonzero"/></g><path fill="#1f2f0d" d="M 36.378906 34.507812 C 36.128906 34.507812 35.972656 34.703125 35.925781 34.757812 C 35.925781 34.757812 34.945312 35.824219 34.933594 35.835938 C 34.871094 35.902344 34.828125 35.96875 34.796875 36.054688 L 34.355469 37.191406 C 34.28125 37.382812 34.371094 37.601562 34.558594 37.675781 C 34.605469 37.695312 34.648438 37.703125 34.695312 37.703125 C 34.839844 37.703125 34.976562 37.613281 35.035156 37.46875 L 35.472656 36.335938 L 35.742188 36.035156 C 35.738281 36.0625 35.734375 36.085938 35.726562 36.109375 C 35.726562 36.109375 35.515625 37.578125 35.644531 38.574219 C 35.644531 38.574219 35.753906 39.246094 35.65625 39.605469 C 35.65625 39.605469 35.316406 41.5 35.21875 41.921875 C 35.175781 42.09375 35.195312 42.300781 35.3125 42.433594 C 35.402344 42.53125 35.515625 42.578125 35.628906 42.578125 C 35.824219 42.578125 36.019531 42.4375 36.066406 42.226562 L 36.652344 39.742188 L 36.714844 39.519531 C 36.714844 39.519531 36.769531 39.191406 36.722656 39.011719 L 36.667969 38.496094 C 36.667969 38.496094 36.65625 38.453125 36.6875 38.425781 C 36.691406 38.421875 36.699219 38.421875 36.707031 38.421875 C 36.730469 38.421875 36.753906 38.4375 36.753906 38.4375 L 37.578125 38.792969 C 37.578125 38.792969 37.65625 38.894531 37.644531 39.089844 C 37.644531 39.089844 37.636719 40.015625 37.636719 40.023438 C 37.640625 40.242188 37.648438 40.507812 37.863281 40.621094 C 38.03125 40.707031 38.265625 40.683594 38.398438 40.539062 C 38.488281 40.441406 38.535156 40.3125 38.535156 40.179688 L 38.609375 38.832031 C 38.625 38.59375 38.667969 38.394531 38.414062 38.25 C 38.414062 38.25 37.5 37.722656 37.5 37.71875 C 37.300781 37.636719 37.335938 37.46875 37.339844 37.285156 C 37.34375 37.199219 37.347656 37.113281 37.347656 37.027344 C 37.351562 37.003906 37.351562 36.984375 37.351562 36.964844 C 37.351562 36.964844 37.351562 36.890625 37.441406 36.890625 C 37.445312 36.890625 37.445312 36.890625 37.449219 36.890625 C 37.714844 36.890625 38.445312 36.894531 38.449219 36.894531 C 38.8125 36.894531 38.867188 36.164062 38.351562 36.164062 C 38.347656 36.164062 38.34375 36.164062 38.339844 36.164062 C 38.339844 36.164062 37.410156 36.128906 37.40625 36.128906 C 37.351562 36.125 37.347656 36.074219 37.347656 36.015625 C 37.339844 35.757812 37.324219 35.558594 37.261719 35.300781 C 37.210938 35.085938 37.113281 34.882812 36.933594 34.75 C 36.796875 34.644531 36.644531 34.5625 36.476562 34.519531 C 36.441406 34.511719 36.378906 34.507812 36.378906 34.507812 Z M 36.378906 34.507812 " fill-opacity="1" fill-rule="nonzero"/><g clip-path="url(#d1e02933de)"><path fill="#1f2f0d" d="M 37.261719 33.5 C 37.261719 33.679688 37.210938 33.828125 37.101562 33.957031 C 36.996094 34.082031 36.863281 34.144531 36.714844 34.144531 C 36.5625 34.144531 36.429688 34.082031 36.324219 33.957031 C 36.214844 33.828125 36.164062 33.679688 36.164062 33.5 C 36.164062 33.324219 36.214844 33.171875 36.324219 33.046875 C 36.429688 32.921875 36.5625 32.859375 36.714844 32.859375 C 36.863281 32.859375 36.996094 32.921875 37.101562 33.046875 C 37.210938 33.171875 37.261719 33.324219 37.261719 33.5 Z M 37.261719 33.5 " fill-opacity="1" fill-rule="nonzero"/></g></svg>