<svg xmlns="http://www.w3.org/2000/svg" xmlns:xlink="http://www.w3.org/1999/xlink" width="308" zoomAndPan="magnify" viewBox="0 0 230.87999 227.249992" height="303" preserveAspectRatio="xMidYMid meet" version="1.0"><defs><clipPath id="bcbfcc0a8c"><path d="M 0.320312 0 L 229.8125 0 L 229.8125 226.503906 L 0.320312 226.503906 Z M 0.320312 0 " clip-rule="nonzero"/></clipPath><clipPath id="c5eff99b95"><path d="M 85.238281 75.496094 L 97.199219 75.496094 L 97.199219 87.457031 L 85.238281 87.457031 Z M 85.238281 75.496094 " clip-rule="nonzero"/></clipPath></defs><g clip-path="url(#bcbfcc0a8c)"><path fill="#1f2f0d" d="M 89.128906 177.757812 C 109.933594 177.757812 129.128906 170.582031 144.195312 158.5625 L 169.304688 183.675781 L 168.050781 184.933594 C 166.796875 186.1875 166.617188 188.339844 167.871094 189.773438 L 196.03125 222.421875 C 198.003906 224.753906 200.875 226.007812 203.925781 226.1875 C 204.105469 226.1875 204.105469 226.1875 204.285156 226.1875 C 207.152344 226.1875 209.84375 225.109375 211.996094 222.957031 L 226.707031 208.25 C 228.859375 206.097656 229.933594 203.226562 229.933594 200.179688 C 229.753906 197.128906 228.5 194.257812 226.167969 192.285156 L 193.523438 163.945312 C 192.085938 162.691406 189.933594 162.867188 188.679688 164.125 L 187.421875 165.378906 L 161.953125 139.730469 C 171.996094 125.378906 178.09375 107.800781 178.09375 88.789062 C 178.09375 39.820312 138.097656 0 89.128906 0 C 40.160156 0 0.339844 39.820312 0.339844 88.96875 C 0.339844 138.117188 40.160156 177.757812 89.128906 177.757812 Z M 207.871094 200.179688 C 209.84375 200.179688 211.636719 201.792969 211.636719 203.945312 C 211.636719 206.097656 210.023438 207.710938 207.871094 207.710938 C 205.898438 207.710938 204.105469 206.097656 204.105469 203.945312 C 204.105469 201.792969 205.71875 200.179688 207.871094 200.179688 Z M 182.402344 170.582031 L 174.328125 178.652344 L 149.753906 153.902344 C 152.445312 151.390625 155.136719 148.519531 157.648438 145.648438 Z M 89.128906 16.679688 C 128.949219 16.679688 161.234375 49.148438 161.234375 88.96875 C 161.234375 128.789062 128.949219 161.253906 89.128906 161.253906 C 49.308594 161.253906 17.019531 128.789062 17.019531 88.96875 C 17.019531 49.148438 49.308594 16.679688 89.128906 16.679688 Z M 89.128906 16.679688 " fill-opacity="1" fill-rule="nonzero"/></g><path fill="#1f2f0d" d="M 61.503906 80.179688 C 60.785156 90.222656 65.089844 99.910156 72.984375 106.1875 C 75.316406 107.980469 76.570312 110.671875 76.570312 113.363281 L 76.570312 118.921875 C 76.570312 122.332031 79.261719 125.917969 83.027344 125.917969 L 99.171875 125.917969 C 102.9375 125.917969 105.449219 122.332031 105.449219 118.921875 L 105.449219 113.542969 C 105.449219 110.671875 106.886719 107.800781 109.21875 106.007812 C 116.390625 100.269531 120.515625 91.480469 120.515625 82.152344 C 120.515625 73.722656 116.929688 65.46875 110.832031 59.910156 C 104.734375 54.347656 97.019531 51.480469 88.769531 52.195312 C 74.238281 53.09375 62.582031 65.113281 61.503906 80.179688 Z M 61.503906 80.179688 " fill-opacity="1" fill-rule="nonzero"/><path fill="#1f2f0d" d="M 98.453125 129.863281 L 83.566406 129.863281 C 81.59375 129.863281 79.980469 131.480469 79.980469 133.453125 C 79.980469 135.425781 81.59375 137.039062 83.566406 137.039062 L 98.453125 137.039062 C 100.429688 137.039062 102.042969 135.425781 102.042969 133.453125 C 102.042969 131.480469 100.429688 129.863281 98.453125 129.863281 Z M 98.453125 129.863281 " fill-opacity="1" fill-rule="nonzero"/><path fill="#1f2f0d" d="M 94.867188 140.984375 L 87.511719 140.984375 C 85.539062 140.984375 83.925781 142.601562 83.925781 144.574219 C 83.925781 146.546875 85.539062 148.160156 87.511719 148.160156 L 94.867188 148.160156 C 96.839844 148.160156 98.453125 146.546875 98.453125 144.574219 C 98.453125 142.601562 96.839844 140.984375 94.867188 140.984375 Z M 94.867188 140.984375 " fill-opacity="1" fill-rule="nonzero"/><path fill="#1f2f0d" d="M 91.101562 45.917969 C 93.074219 45.917969 94.6875 44.304688 94.6875 42.332031 L 94.6875 33.363281 C 94.6875 31.390625 93.074219 29.777344 91.101562 29.777344 C 89.128906 29.777344 87.511719 31.390625 87.511719 33.363281 L 87.511719 42.332031 C 87.511719 44.304688 89.128906 45.917969 91.101562 45.917969 Z M 91.101562 45.917969 " fill-opacity="1" fill-rule="nonzero"/><path fill="#1f2f0d" d="M 117.828125 56.679688 C 118.722656 56.679688 119.621094 56.324219 120.339844 55.605469 L 125.359375 50.582031 C 126.796875 49.148438 126.796875 46.816406 125.359375 45.558594 C 123.925781 44.125 121.59375 44.125 120.339844 45.558594 L 115.316406 50.582031 C 113.878906 52.019531 113.878906 54.347656 115.316406 55.605469 C 116.03125 56.324219 116.929688 56.679688 117.828125 56.679688 Z M 117.828125 56.679688 " fill-opacity="1" fill-rule="nonzero"/><path fill="#1f2f0d" d="M 125 79.640625 C 125 81.613281 126.617188 83.226562 128.589844 83.226562 L 135.585938 83.226562 C 137.558594 83.226562 139.171875 81.613281 139.171875 79.640625 C 139.171875 77.667969 137.558594 76.054688 135.585938 76.054688 L 128.589844 76.054688 C 126.617188 76.054688 125 77.667969 125 79.640625 Z M 125 79.640625 " fill-opacity="1" fill-rule="nonzero"/><path fill="#1f2f0d" d="M 46.617188 83.226562 L 53.613281 83.226562 C 55.585938 83.226562 57.199219 81.613281 57.199219 79.640625 C 57.199219 77.667969 55.585938 76.054688 53.613281 76.054688 L 46.617188 76.054688 C 44.644531 76.054688 43.027344 77.667969 43.027344 79.640625 C 43.027344 81.613281 44.644531 83.226562 46.617188 83.226562 Z M 46.617188 83.226562 " fill-opacity="1" fill-rule="nonzero"/><path fill="#1f2f0d" d="M 61.503906 54.886719 C 62.222656 55.605469 63.117188 55.964844 64.015625 55.964844 C 64.914062 55.964844 65.808594 55.605469 66.527344 54.886719 C 67.960938 53.453125 67.960938 51.300781 66.527344 49.863281 L 61.683594 44.84375 C 60.25 43.40625 58.097656 43.40625 56.660156 44.84375 C 55.226562 46.277344 55.226562 48.429688 56.660156 49.863281 Z M 61.503906 54.886719 " fill-opacity="1" fill-rule="nonzero"/><g clip-path="url(#c5eff99b95)"><path fill="#1f2f0d" d="M 89.933594 84.894531 C 91.03125 84.894531 92.046875 84.515625 92.84375 83.878906 L 94.171875 85.207031 L 94.105469 85.273438 C 94.039062 85.339844 94.027344 85.453125 94.09375 85.527344 L 95.582031 87.253906 C 95.6875 87.378906 95.839844 87.445312 96 87.453125 C 96.011719 87.453125 96.011719 87.453125 96.019531 87.453125 C 96.171875 87.453125 96.3125 87.394531 96.425781 87.28125 L 97.203125 86.503906 C 97.320312 86.390625 97.375 86.238281 97.375 86.078125 C 97.367188 85.917969 97.300781 85.765625 97.175781 85.660156 L 95.449219 84.164062 C 95.375 84.097656 95.261719 84.105469 95.195312 84.171875 L 95.128906 84.238281 L 93.78125 82.882812 C 94.3125 82.125 94.636719 81.195312 94.636719 80.191406 C 94.636719 77.601562 92.519531 75.496094 89.933594 75.496094 C 87.34375 75.496094 85.238281 77.601562 85.238281 80.199219 C 85.238281 82.796875 87.34375 84.894531 89.933594 84.894531 Z M 96.210938 86.078125 C 96.3125 86.078125 96.410156 86.164062 96.410156 86.277344 C 96.410156 86.390625 96.324219 86.476562 96.210938 86.476562 C 96.105469 86.476562 96.011719 86.390625 96.011719 86.277344 C 96.011719 86.164062 96.09375 86.078125 96.210938 86.078125 Z M 94.863281 84.515625 L 94.4375 84.941406 L 93.136719 83.632812 C 93.28125 83.5 93.421875 83.347656 93.554688 83.195312 Z M 89.933594 76.378906 C 92.039062 76.378906 93.746094 78.09375 93.746094 80.199219 C 93.746094 82.304688 92.039062 84.019531 89.933594 84.019531 C 87.828125 84.019531 86.121094 82.304688 86.121094 80.199219 C 86.121094 78.09375 87.828125 76.378906 89.933594 76.378906 Z M 89.933594 76.378906 " fill-opacity="1" fill-rule="nonzero"/></g><path fill="#1f2f0d" d="M 88.472656 79.734375 C 88.433594 80.265625 88.664062 80.777344 89.078125 81.109375 C 89.203125 81.203125 89.269531 81.347656 89.269531 81.488281 L 89.269531 81.785156 C 89.269531 81.964844 89.410156 82.152344 89.609375 82.152344 L 90.464844 82.152344 C 90.664062 82.152344 90.796875 81.964844 90.796875 81.785156 L 90.796875 81.5 C 90.796875 81.347656 90.871094 81.195312 90.996094 81.101562 C 91.375 80.796875 91.59375 80.332031 91.59375 79.839844 C 91.59375 79.394531 91.402344 78.957031 91.078125 78.664062 C 90.757812 78.371094 90.351562 78.21875 89.914062 78.257812 C 89.144531 78.304688 88.53125 78.9375 88.472656 79.734375 Z M 88.472656 79.734375 " fill-opacity="1" fill-rule="nonzero"/><path fill="#1f2f0d" d="M 90.425781 82.363281 L 89.640625 82.363281 C 89.535156 82.363281 89.449219 82.445312 89.449219 82.550781 C 89.449219 82.65625 89.535156 82.742188 89.640625 82.742188 L 90.425781 82.742188 C 90.53125 82.742188 90.617188 82.65625 90.617188 82.550781 C 90.617188 82.445312 90.53125 82.363281 90.425781 82.363281 Z M 90.425781 82.363281 " fill-opacity="1" fill-rule="nonzero"/><path fill="#1f2f0d" d="M 90.234375 82.949219 L 89.847656 82.949219 C 89.742188 82.949219 89.65625 83.035156 89.65625 83.140625 C 89.65625 83.242188 89.742188 83.328125 89.847656 83.328125 L 90.234375 83.328125 C 90.339844 83.328125 90.425781 83.242188 90.425781 83.140625 C 90.425781 83.035156 90.339844 82.949219 90.234375 82.949219 Z M 90.234375 82.949219 " fill-opacity="1" fill-rule="nonzero"/><path fill="#1f2f0d" d="M 90.035156 77.925781 C 90.140625 77.925781 90.226562 77.839844 90.226562 77.734375 L 90.226562 77.261719 C 90.226562 77.15625 90.140625 77.070312 90.035156 77.070312 C 89.933594 77.070312 89.847656 77.15625 89.847656 77.261719 L 89.847656 77.734375 C 89.847656 77.839844 89.933594 77.925781 90.035156 77.925781 Z M 90.035156 77.925781 " fill-opacity="1" fill-rule="nonzero"/><path fill="#1f2f0d" d="M 91.449219 78.492188 C 91.496094 78.492188 91.542969 78.472656 91.582031 78.4375 L 91.847656 78.171875 C 91.921875 78.09375 91.921875 77.972656 91.847656 77.90625 C 91.773438 77.828125 91.648438 77.828125 91.582031 77.90625 L 91.316406 78.171875 C 91.242188 78.246094 91.242188 78.371094 91.316406 78.4375 C 91.355469 78.472656 91.402344 78.492188 91.449219 78.492188 Z M 91.449219 78.492188 " fill-opacity="1" fill-rule="nonzero"/><path fill="#1f2f0d" d="M 91.828125 79.707031 C 91.828125 79.8125 91.914062 79.898438 92.019531 79.898438 L 92.386719 79.898438 C 92.492188 79.898438 92.578125 79.8125 92.578125 79.707031 C 92.578125 79.601562 92.492188 79.515625 92.386719 79.515625 L 92.019531 79.515625 C 91.914062 79.515625 91.828125 79.601562 91.828125 79.707031 Z M 91.828125 79.707031 " fill-opacity="1" fill-rule="nonzero"/><path fill="#1f2f0d" d="M 87.6875 79.898438 L 88.054688 79.898438 C 88.160156 79.898438 88.246094 79.8125 88.246094 79.707031 C 88.246094 79.601562 88.160156 79.515625 88.054688 79.515625 L 87.6875 79.515625 C 87.582031 79.515625 87.496094 79.601562 87.496094 79.707031 C 87.496094 79.8125 87.582031 79.898438 87.6875 79.898438 Z M 87.6875 79.898438 " fill-opacity="1" fill-rule="nonzero"/><path fill="#1f2f0d" d="M 88.472656 78.398438 C 88.511719 78.4375 88.558594 78.457031 88.605469 78.457031 C 88.652344 78.457031 88.699219 78.4375 88.738281 78.398438 C 88.8125 78.324219 88.8125 78.207031 88.738281 78.132812 L 88.480469 77.867188 C 88.40625 77.792969 88.292969 77.792969 88.214844 77.867188 C 88.140625 77.945312 88.140625 78.058594 88.214844 78.132812 Z M 88.472656 78.398438 " fill-opacity="1" fill-rule="nonzero"/></svg>