<svg xmlns="http://www.w3.org/2000/svg" xmlns:xlink="http://www.w3.org/1999/xlink" width="308" zoomAndPan="magnify" viewBox="0 0 230.87999 152.249993" height="203" preserveAspectRatio="xMidYMid meet" version="1.0"><defs><clipPath id="6cacbbe2a2"><path d="M 0.507812 56 L 229 56 L 229 150 L 0.507812 150 Z M 0.507812 56 " clip-rule="nonzero"/></clipPath><clipPath id="12a1aa4b24"><path d="M 22 88.9375 L 26 88.9375 L 26 95 L 22 95 Z M 22 88.9375 " clip-rule="nonzero"/></clipPath><clipPath id="616985c95c"><path d="M 13.640625 93 L 31.554688 93 L 31.554688 100.878906 L 13.640625 100.878906 Z M 13.640625 93 " clip-rule="nonzero"/></clipPath></defs><path fill="#1f2f0d" d="M 134.324219 0 L 123.488281 0 C 119.578125 0 116.558594 3.199219 116.558594 6.929688 L 116.558594 32.871094 C 116.558594 32.871094 111.226562 32.871094 111.226562 32.871094 C 108.386719 32.871094 106.785156 36.070312 108.207031 38.378906 L 125.976562 65.742188 C 126.6875 66.804688 127.75 67.339844 128.996094 67.339844 C 130.238281 67.339844 131.304688 66.804688 132.015625 65.742188 C 132.015625 65.742188 149.785156 38.378906 149.785156 38.378906 C 151.382812 36.070312 149.605469 32.871094 146.761719 32.871094 L 141.433594 32.871094 C 141.433594 32.871094 141.433594 6.929688 141.433594 6.929688 C 141.253906 3.199219 138.058594 0 134.324219 0 Z M 134.324219 0 " fill-opacity="1" fill-rule="nonzero"/><g clip-path="url(#6cacbbe2a2)"><path fill="#1f2f0d" d="M 205.929688 66.984375 C 199.179688 60.234375 186.742188 60.765625 181.410156 61.832031 C 178.746094 59.34375 175.726562 57.921875 172.171875 57.210938 C 167.195312 56.324219 160.976562 57.746094 156.535156 61.121094 L 141.253906 71.425781 C 143.386719 71.960938 150.671875 73.203125 151.027344 73.378906 L 160.621094 66.804688 C 163.464844 64.675781 167.730469 63.609375 170.75 64.140625 C 172.527344 64.496094 173.949219 65.207031 175.371094 66.097656 L 161.15625 76.222656 C 162.042969 76.757812 162.933594 77.289062 163.820312 78 C 164.886719 78.886719 165.953125 79.777344 166.839844 80.84375 L 184.253906 68.40625 C 187.984375 67.871094 194.027344 68.050781 198.113281 70.183594 L 171.28125 88.839844 C 171.992188 91.503906 171.992188 94.523438 171.28125 97.367188 C 171.28125 97.367188 171.28125 97.367188 171.28125 97.542969 L 205.398438 74.445312 C 207.171875 74.269531 219.789062 72.671875 221.210938 81.019531 C 221.921875 85.105469 219.609375 89.550781 215.167969 92.035156 C 215.167969 92.035156 140.542969 139.476562 140.542969 139.652344 C 134.679688 143.386719 126.863281 143.03125 120.824219 140.007812 L 78.179688 118.15625 C 78.003906 118.15625 78.003906 117.976562 77.824219 117.976562 C 74.980469 116.910156 71.785156 116.910156 68.941406 117.800781 L 43.53125 126.507812 L 43.53125 74.445312 L 58.636719 69.648438 C 76.402344 63.964844 95.414062 70.894531 113.894531 77.46875 C 119.933594 79.597656 125.976562 81.910156 132.195312 83.6875 C 136.457031 84.929688 140.722656 86.171875 145.34375 86.882812 C 147.828125 87.238281 150.496094 87.238281 152.980469 88.128906 C 155.292969 88.839844 158.132812 90.96875 157.425781 93.8125 C 156.535156 97.367188 151.207031 101.632812 146.761719 102.34375 C 136.636719 103.941406 124.019531 104.296875 105.898438 95.234375 C 104.121094 94.347656 101.988281 95.058594 101.101562 96.835938 C 100.210938 98.609375 100.921875 100.742188 102.699219 101.632812 C 116.203125 108.5625 127.042969 110.515625 136.101562 110.515625 C 140.367188 110.515625 144.277344 110.160156 147.828125 109.449219 C 154.226562 108.382812 162.398438 102.699219 164.175781 95.769531 C 165.242188 91.324219 163.644531 87.0625 159.734375 83.863281 C 156.359375 81.375 152.449219 80.84375 149.074219 80.488281 C 143.742188 79.777344 138.589844 78.355469 133.4375 76.933594 C 127.929688 75.335938 122.242188 73.378906 116.378906 71.070312 C 97.722656 64.320312 76.757812 56.679688 56.679688 63.074219 L 42.820312 67.515625 C 42.289062 66.453125 41.578125 65.386719 40.511719 64.675781 C 39.625 63.964844 38.734375 63.429688 37.492188 63.074219 C 37.3125 63.074219 37.136719 62.898438 36.957031 62.898438 C 36.601562 62.898438 36.425781 62.71875 36.070312 62.71875 C 35.894531 62.71875 35.539062 62.71875 35.359375 62.71875 C 35.183594 62.71875 35.003906 62.71875 34.648438 62.71875 L 9.773438 62.71875 C 4.800781 62.71875 0.890625 66.628906 0.890625 71.605469 L 0.890625 135.566406 C 0.890625 140.542969 4.800781 144.453125 9.773438 144.453125 L 34.648438 144.453125 C 39.625 144.453125 43.53125 140.542969 43.53125 135.566406 L 43.53125 134.5 L 71.25 125.085938 C 72.496094 124.730469 73.914062 124.730469 75.160156 125.085938 C 75.160156 125.085938 117.445312 146.761719 117.445312 146.761719 C 125.796875 151.027344 135.925781 150.847656 144.097656 146.226562 L 218.722656 98.789062 C 225.652344 94.703125 229.382812 87.59375 228.140625 80.308594 C 226.007812 68.050781 213.746094 66.273438 205.929688 66.984375 Z M 25.765625 136.8125 L 18.65625 136.8125 L 18.65625 131.480469 C 18.65625 129.527344 20.257812 127.925781 22.210938 127.925781 C 24.167969 127.925781 25.765625 129.527344 25.765625 131.480469 Z M 25.765625 136.8125 " fill-opacity="1" fill-rule="nonzero"/></g><g clip-path="url(#12a1aa4b24)"><path fill="#1f2f0d" d="M 24.21875 88.9375 L 23.363281 88.9375 C 23.054688 88.9375 22.816406 89.191406 22.816406 89.484375 L 22.816406 91.535156 C 22.816406 91.535156 22.394531 91.535156 22.394531 91.535156 C 22.167969 91.535156 22.042969 91.789062 22.15625 91.972656 L 23.558594 94.136719 C 23.617188 94.21875 23.699219 94.261719 23.796875 94.261719 C 23.894531 94.261719 23.980469 94.21875 24.035156 94.136719 C 24.035156 94.136719 25.441406 91.972656 25.441406 91.972656 C 25.566406 91.789062 25.425781 91.535156 25.203125 91.535156 L 24.78125 91.535156 C 24.78125 91.535156 24.78125 89.484375 24.78125 89.484375 C 24.765625 89.191406 24.515625 88.9375 24.21875 88.9375 Z M 24.21875 88.9375 " fill-opacity="1" fill-rule="nonzero"/></g><g clip-path="url(#616985c95c)"><path fill="#1f2f0d" d="M 29.882812 94.234375 C 29.347656 93.699219 28.363281 93.742188 27.941406 93.828125 C 27.730469 93.628906 27.492188 93.519531 27.210938 93.460938 C 26.820312 93.390625 26.328125 93.503906 25.976562 93.769531 L 24.765625 94.585938 C 24.9375 94.628906 25.511719 94.726562 25.539062 94.738281 L 26.296875 94.21875 C 26.523438 94.050781 26.859375 93.96875 27.097656 94.007812 C 27.238281 94.039062 27.351562 94.09375 27.464844 94.164062 L 26.339844 94.964844 C 26.410156 95.007812 26.480469 95.050781 26.550781 95.105469 C 26.636719 95.175781 26.71875 95.246094 26.789062 95.328125 L 28.167969 94.347656 C 28.460938 94.304688 28.941406 94.320312 29.261719 94.488281 L 27.140625 95.960938 C 27.199219 96.171875 27.199219 96.410156 27.140625 96.636719 C 27.140625 96.636719 27.140625 96.636719 27.140625 96.652344 L 29.839844 94.824219 C 29.980469 94.808594 30.976562 94.683594 31.089844 95.34375 C 31.144531 95.667969 30.960938 96.019531 30.613281 96.214844 C 30.613281 96.214844 24.710938 99.964844 24.710938 99.980469 C 24.246094 100.273438 23.628906 100.246094 23.152344 100.007812 L 19.78125 98.28125 C 19.765625 98.28125 19.765625 98.265625 19.753906 98.265625 C 19.527344 98.183594 19.273438 98.183594 19.050781 98.253906 L 17.039062 98.941406 L 17.039062 94.824219 L 18.234375 94.445312 C 19.640625 93.996094 21.144531 94.542969 22.605469 95.0625 C 23.082031 95.230469 23.558594 95.414062 24.050781 95.554688 C 24.386719 95.652344 24.726562 95.75 25.089844 95.808594 C 25.289062 95.835938 25.496094 95.835938 25.695312 95.90625 C 25.878906 95.960938 26.101562 96.128906 26.046875 96.355469 C 25.976562 96.636719 25.554688 96.972656 25.203125 97.03125 C 24.402344 97.15625 23.40625 97.183594 21.972656 96.46875 C 21.832031 96.398438 21.664062 96.453125 21.59375 96.59375 C 21.523438 96.734375 21.578125 96.902344 21.71875 96.972656 C 22.785156 97.519531 23.644531 97.675781 24.359375 97.675781 C 24.695312 97.675781 25.007812 97.648438 25.289062 97.589844 C 25.792969 97.507812 26.4375 97.058594 26.578125 96.511719 C 26.664062 96.160156 26.539062 95.820312 26.226562 95.570312 C 25.960938 95.371094 25.652344 95.328125 25.386719 95.300781 C 24.964844 95.246094 24.558594 95.132812 24.148438 95.019531 C 23.714844 94.894531 23.265625 94.738281 22.800781 94.558594 C 21.324219 94.023438 19.667969 93.417969 18.082031 93.925781 L 16.984375 94.277344 C 16.941406 94.191406 16.886719 94.109375 16.800781 94.050781 C 16.730469 93.996094 16.660156 93.953125 16.5625 93.925781 C 16.550781 93.925781 16.535156 93.910156 16.519531 93.910156 C 16.492188 93.910156 16.480469 93.898438 16.449219 93.898438 C 16.4375 93.898438 16.410156 93.898438 16.394531 93.898438 C 16.378906 93.898438 16.367188 93.898438 16.339844 93.898438 L 14.371094 93.898438 C 13.976562 93.898438 13.667969 94.207031 13.667969 94.597656 L 13.667969 99.65625 C 13.667969 100.050781 13.976562 100.359375 14.371094 100.359375 L 16.339844 100.359375 C 16.730469 100.359375 17.039062 100.050781 17.039062 99.65625 L 17.039062 99.574219 L 19.230469 98.828125 C 19.332031 98.800781 19.441406 98.800781 19.542969 98.828125 C 19.542969 98.828125 22.886719 100.542969 22.886719 100.542969 C 23.546875 100.878906 24.347656 100.863281 24.992188 100.5 L 30.890625 96.75 C 31.441406 96.425781 31.734375 95.863281 31.636719 95.289062 C 31.46875 94.320312 30.5 94.179688 29.882812 94.234375 Z M 15.636719 99.753906 L 15.074219 99.753906 L 15.074219 99.332031 C 15.074219 99.179688 15.199219 99.054688 15.355469 99.054688 C 15.507812 99.054688 15.636719 99.179688 15.636719 99.332031 Z M 15.636719 99.753906 " fill-opacity="1" fill-rule="nonzero"/></g></svg>