<svg width="119" height="193" viewBox="0 0 119 193" fill="none" xmlns="http://www.w3.org/2000/svg">
<g filter="url(#filter0_d_131_17)">
<path d="M50.889 95.7237C58.0092 82.9211 71.6948 75.3684 79.6473 64.0395C88.0621 52.1579 83.3461 29.9605 59.4888 29.9605C43.8613 29.9605 36.1863 41.75 32.9498 51.5132L9 41.4737C15.5654 21.8553 33.4121 5 59.3963 5C81.1268 5 96.0145 14.8553 103.597 27.1974C110.07 37.7895 113.861 57.5921 103.874 72.3289C92.7781 88.6316 82.144 93.6053 76.4108 104.105C74.0991 108.342 73.1744 111.105 73.1744 124.737H46.4505C46.358 117.553 45.2483 105.855 50.889 95.7237ZM77.9828 161.579C77.9828 171.711 69.6605 180 59.4888 180C49.317 180 40.9947 171.711 40.9947 161.579C40.9947 151.447 49.317 143.158 59.4888 143.158C69.6605 143.158 77.9828 151.447 77.9828 161.579Z" fill="#5C6D49"/>
</g>
<defs>
<filter id="filter0_d_131_17" x="0" y="0" width="119" height="193" filterUnits="userSpaceOnUse" color-interpolation-filters="sRGB">
<feFlood flood-opacity="0" result="BackgroundImageFix"/>
<feColorMatrix in="SourceAlpha" type="matrix" values="0 0 0 0 0 0 0 0 0 0 0 0 0 0 0 0 0 0 127 0" result="hardAlpha"/>
<feOffset dy="4"/>
<feGaussianBlur stdDeviation="4.5"/>
<feComposite in2="hardAlpha" operator="out"/>
<feColorMatrix type="matrix" values="0 0 0 0 0 0 0 0 0 0 0 0 0 0 0 0 0 0 0.25 0"/>
<feBlend mode="normal" in2="BackgroundImageFix" result="effect1_dropShadow_131_17"/>
<feBlend mode="normal" in="SourceGraphic" in2="effect1_dropShadow_131_17" result="shape"/>
</filter>
</defs>
</svg>
