<svg width="53" height="48" viewBox="0 0 53 48" fill="none" xmlns="http://www.w3.org/2000/svg">
<g filter="url(#filter0_d_347_15)">
<path d="M26.5 40C24.8636 38.7009 23.0909 37.6923 21.1818 36.9744C19.2727 36.2564 17.2955 35.8974 15.25 35.8974C13.8182 35.8974 12.4119 36.0855 11.0312 36.4615C9.65057 36.8376 8.32955 37.3675 7.06818 38.0513C6.35227 38.4274 5.66193 38.4103 4.99716 38C4.33239 37.5897 4 36.9915 4 36.2051V11.4872C4 11.1111 4.09375 10.7521 4.28125 10.4103C4.46875 10.0684 4.75 9.81197 5.125 9.64103C6.69318 8.82051 8.32955 8.20513 10.0341 7.79487C11.7386 7.38462 13.4773 7.17949 15.25 7.17949C17.2273 7.17949 19.1619 7.4359 21.054 7.94872C22.946 8.46154 24.7614 9.23077 26.5 10.2564V35.0769C28.2386 33.9829 30.0625 33.1624 31.9716 32.6154C33.8807 32.0684 35.8068 31.7949 37.75 31.7949C38.9773 31.7949 40.179 31.8974 41.3551 32.1026C42.5312 32.3077 43.7159 32.6154 44.9091 33.0256V8.41026C45.4205 8.5812 45.9233 8.76068 46.4176 8.94872C46.9119 9.13675 47.3977 9.36752 47.875 9.64103C48.25 9.81197 48.5312 10.0684 48.7187 10.4103C48.9062 10.7521 49 11.1111 49 11.4872V36.2051C49 36.9915 48.6676 37.5897 48.0028 38C47.3381 38.4103 46.6477 38.4274 45.9318 38.0513C44.6705 37.3675 43.3494 36.8376 41.9687 36.4615C40.5881 36.0855 39.1818 35.8974 37.75 35.8974C35.7045 35.8974 33.7273 36.2564 31.8182 36.9744C29.9091 37.6923 28.1364 38.7009 26.5 40ZM30.5909 29.7436V10.2564L40.8182 0V20.5128L30.5909 29.7436ZM22.4091 33.0769V12.7692C21.2841 12.2906 20.1165 11.9231 18.9062 11.6667C17.696 11.4103 16.4773 11.2821 15.25 11.2821C13.9886 11.2821 12.7614 11.4017 11.5682 11.641C10.375 11.8803 9.21591 12.2393 8.09091 12.7179V33.0769C9.28409 32.6325 10.4687 32.3077 11.6449 32.1026C12.821 31.8974 14.0227 31.7949 15.25 31.7949C16.4773 31.7949 17.679 31.8974 18.8551 32.1026C20.0312 32.3077 21.2159 32.6325 22.4091 33.0769Z" fill="#E8F1D4"/>
</g>
<defs>
<filter id="filter0_d_347_15" x="0" y="0" width="53" height="48" filterUnits="userSpaceOnUse" color-interpolation-filters="sRGB">
<feFlood flood-opacity="0" result="BackgroundImageFix"/>
<feColorMatrix in="SourceAlpha" type="matrix" values="0 0 0 0 0 0 0 0 0 0 0 0 0 0 0 0 0 0 127 0" result="hardAlpha"/>
<feOffset dy="4"/>
<feGaussianBlur stdDeviation="2"/>
<feComposite in2="hardAlpha" operator="out"/>
<feColorMatrix type="matrix" values="0 0 0 0 0 0 0 0 0 0 0 0 0 0 0 0 0 0 0.25 0"/>
<feBlend mode="normal" in2="BackgroundImageFix" result="effect1_dropShadow_347_15"/>
<feBlend mode="normal" in="SourceGraphic" in2="effect1_dropShadow_347_15" result="shape"/>
</filter>
</defs>
</svg>
