<svg width="48" height="48" viewBox="0 0 48 48" fill="none" xmlns="http://www.w3.org/2000/svg">
<g filter="url(#filter0_d_348_36)">
<path d="M24 20C21.25 20 18.8958 19.0208 16.9375 17.0625C14.9792 15.1042 14 12.75 14 10C14 7.25 14.9792 4.89583 16.9375 2.9375C18.8958 0.979167 21.25 0 24 0C26.75 0 29.1042 0.979167 31.0625 2.9375C33.0208 4.89583 34 7.25 34 10C34 12.75 33.0208 15.1042 31.0625 17.0625C29.1042 19.0208 26.75 20 24 20ZM4 40V33C4 31.5833 4.36458 30.2812 5.09375 29.0938C5.82292 27.9062 6.79167 27 8 26.375C10.5833 25.0833 13.2083 24.1146 15.875 23.4688C18.5417 22.8229 21.25 22.5 24 22.5C26.75 22.5 29.4583 22.8229 32.125 23.4688C34.7917 24.1146 37.4167 25.0833 40 26.375C41.2083 27 42.1771 27.9062 42.9062 29.0938C43.6354 30.2812 44 31.5833 44 33V40H4ZM9 35H39V33C39 32.5417 38.8854 32.125 38.6562 31.75C38.4271 31.375 38.125 31.0833 37.75 30.875C35.5 29.75 33.2292 28.9062 30.9375 28.3438C28.6458 27.7812 26.3333 27.5 24 27.5C21.6667 27.5 19.3542 27.7812 17.0625 28.3438C14.7708 28.9062 12.5 29.75 10.25 30.875C9.875 31.0833 9.57292 31.375 9.34375 31.75C9.11458 32.125 9 32.5417 9 33V35ZM24 15C25.375 15 26.5521 14.5104 27.5312 13.5312C28.5104 12.5521 29 11.375 29 10C29 8.625 28.5104 7.44792 27.5312 6.46875C26.5521 5.48958 25.375 5 24 5C22.625 5 21.4479 5.48958 20.4688 6.46875C19.4896 7.44792 19 8.625 19 10C19 11.375 19.4896 12.5521 20.4688 13.5312C21.4479 14.5104 22.625 15 24 15Z" fill="#E8F1D4"/>
</g>
<defs>
<filter id="filter0_d_348_36" x="0" y="0" width="48" height="48" filterUnits="userSpaceOnUse" color-interpolation-filters="sRGB">
<feFlood flood-opacity="0" result="BackgroundImageFix"/>
<feColorMatrix in="SourceAlpha" type="matrix" values="0 0 0 0 0 0 0 0 0 0 0 0 0 0 0 0 0 0 127 0" result="hardAlpha"/>
<feOffset dy="4"/>
<feGaussianBlur stdDeviation="2"/>
<feComposite in2="hardAlpha" operator="out"/>
<feColorMatrix type="matrix" values="0 0 0 0 0 0 0 0 0 0 0 0 0 0 0 0 0 0 0.25 0"/>
<feBlend mode="normal" in2="BackgroundImageFix" result="effect1_dropShadow_348_36"/>
<feBlend mode="normal" in="SourceGraphic" in2="effect1_dropShadow_348_36" result="shape"/>
</filter>
</defs>
</svg>
