<svg width="48" height="48" viewBox="0 0 48 48" fill="none" xmlns="http://www.w3.org/2000/svg">
<g filter="url(#filter0_d_1_3)">
<path d="M11.7 30.2C13.4 28.9 15.3 27.875 17.4 27.125C19.5 26.375 21.7 26 24 26C26.3 26 28.5 26.375 30.6 27.125C32.7 27.875 34.6 28.9 36.3 30.2C37.4667 28.8333 38.375 27.2833 39.025 25.55C39.675 23.8167 40 21.9667 40 20C40 15.5667 38.4417 11.7917 35.325 8.675C32.2083 5.55833 28.4333 4 24 4C19.5667 4 15.7917 5.55833 12.675 8.675C9.55833 11.7917 8 15.5667 8 20C8 21.9667 8.325 23.8167 8.975 25.55C9.625 27.2833 10.5333 28.8333 11.7 30.2ZM24 22C22.0333 22 20.375 21.325 19.025 19.975C17.675 18.625 17 16.9667 17 15C17 13.0333 17.675 11.375 19.025 10.025C20.375 8.675 22.0333 8 24 8C25.9667 8 27.625 8.675 28.975 10.025C30.325 11.375 31 13.0333 31 15C31 16.9667 30.325 18.625 28.975 19.975C27.625 21.325 25.9667 22 24 22ZM24 40C21.2333 40 18.6333 39.475 16.2 38.425C13.7667 37.375 11.65 35.95 9.85 34.15C8.05 32.35 6.625 30.2333 5.575 27.8C4.525 25.3667 4 22.7667 4 20C4 17.2333 4.525 14.6333 5.575 12.2C6.625 9.76667 8.05 7.65 9.85 5.85C11.65 4.05 13.7667 2.625 16.2 1.575C18.6333 0.525 21.2333 0 24 0C26.7667 0 29.3667 0.525 31.8 1.575C34.2333 2.625 36.35 4.05 38.15 5.85C39.95 7.65 41.375 9.76667 42.425 12.2C43.475 14.6333 44 17.2333 44 20C44 22.7667 43.475 25.3667 42.425 27.8C41.375 30.2333 39.95 32.35 38.15 34.15C36.35 35.95 34.2333 37.375 31.8 38.425C29.3667 39.475 26.7667 40 24 40ZM24 36C25.7667 36 27.4333 35.7417 29 35.225C30.5667 34.7083 32 33.9667 33.3 33C32 32.0333 30.5667 31.2917 29 30.775C27.4333 30.2583 25.7667 30 24 30C22.2333 30 20.5667 30.2583 19 30.775C17.4333 31.2917 16 32.0333 14.7 33C16 33.9667 17.4333 34.7083 19 35.225C20.5667 35.7417 22.2333 36 24 36ZM24 18C24.8667 18 25.5833 17.7167 26.15 17.15C26.7167 16.5833 27 15.8667 27 15C27 14.1333 26.7167 13.4167 26.15 12.85C25.5833 12.2833 24.8667 12 24 12C23.1333 12 22.4167 12.2833 21.85 12.85C21.2833 13.4167 21 14.1333 21 15C21 15.8667 21.2833 16.5833 21.85 17.15C22.4167 17.7167 23.1333 18 24 18Z" fill="#E8F1D4"/>
</g>
<defs>
<filter id="filter0_d_1_3" x="0" y="0" width="48" height="48" filterUnits="userSpaceOnUse" color-interpolation-filters="sRGB">
<feFlood flood-opacity="0" result="BackgroundImageFix"/>
<feColorMatrix in="SourceAlpha" type="matrix" values="0 0 0 0 0 0 0 0 0 0 0 0 0 0 0 0 0 0 127 0" result="hardAlpha"/>
<feOffset dy="4"/>
<feGaussianBlur stdDeviation="2"/>
<feComposite in2="hardAlpha" operator="out"/>
<feColorMatrix type="matrix" values="0 0 0 0 0 0 0 0 0 0 0 0 0 0 0 0 0 0 0.25 0"/>
<feBlend mode="normal" in2="BackgroundImageFix" result="effect1_dropShadow_1_3"/>
<feBlend mode="normal" in="SourceGraphic" in2="effect1_dropShadow_1_3" result="shape"/>
</filter>
</defs>
</svg>
